fontCallback.success({"glyphs":{"S":{"x_min":52.78125,"x_max":809.78125,"ha":738,"o":"m 108 204 q 215 170 161 184 q 322 156 270 156 q 402 166 365 156 q 466 195 438 176 q 508 243 493 215 q 523 308 523 270 q 511 356 523 336 q 479 394 498 377 q 433 425 459 411 q 380 456 406 440 q 239 566 291 509 q 187 698 187 622 q 213 832 187 773 q 288 932 240 891 q 406 993 337 972 q 561 1015 475 1015 q 693 1004 637 1015 q 809 969 748 993 q 790 890 804 932 q 751 808 776 848 q 668 840 711 827 q 558 852 626 852 q 504 848 533 852 q 453 832 476 844 q 415 800 430 820 q 400 745 400 779 q 434 668 400 698 q 520 607 468 637 q 608 554 568 580 q 679 497 648 527 q 727 428 709 466 q 744 340 744 390 q 718 204 744 269 q 639 90 693 138 q 504 12 586 41 q 309 -16 422 -16 q 52 31 179 -16 q 72 115 58 73 q 108 204 87 158 "},"¦":{"x_min":97.234375,"x_max":518.09375,"ha":471,"o":"m 327 1077 q 423 1086 377 1086 q 518 1077 472 1086 l 436 612 q 340 604 387 604 q 245 612 293 604 l 327 1077 m 179 231 q 275 240 229 240 q 369 231 323 240 l 287 -233 q 191 -241 237 -241 q 97 -233 143 -241 l 179 231 "},"/":{"x_min":20.828125,"x_max":712.5625,"ha":558,"o":"m 515 997 q 616 1007 568 1007 q 712 997 668 1007 l 216 0 q 115 -8 162 -8 q 20 0 68 -8 l 515 997 "},"₅":{"x_min":85.953125,"x_max":567.9375,"ha":625,"o":"m 177 255 l 242 557 l 567 557 q 547 433 567 491 l 338 433 l 319 353 q 381 361 348 361 q 442 353 412 361 q 495 326 472 344 q 531 279 517 308 q 545 210 545 250 q 522 107 545 150 q 462 38 499 65 q 376 -1 424 11 q 276 -15 327 -15 q 167 -3 219 -15 q 85 23 115 7 q 102 80 92 53 q 140 141 112 108 q 203 119 170 128 q 272 109 235 109 q 354 131 324 109 q 383 191 383 153 q 363 237 383 221 q 298 254 344 254 q 250 250 274 254 q 197 233 226 246 l 177 255 "},"y":{"x_min":37.5,"x_max":812.5625,"ha":753,"o":"m 141 718 q 248 726 193 726 q 345 718 297 726 l 383 90 q 474 288 437 204 q 536 432 511 372 q 574 533 561 493 q 594 601 587 573 q 602 647 601 629 q 604 683 604 666 q 602 704 604 697 q 600 718 601 711 q 650 724 623 722 q 704 726 676 726 q 808 718 759 726 q 812 688 812 705 q 806 636 812 665 q 791 579 800 608 q 771 525 782 551 q 752 477 761 498 q 652 257 716 391 q 486 -81 587 123 q 401 -219 443 -168 q 316 -297 359 -270 q 230 -331 273 -323 q 143 -338 187 -338 q 88 -334 111 -338 q 37 -322 65 -330 q 48 -245 40 -281 q 76 -176 56 -209 q 106 -185 88 -181 q 136 -188 123 -188 q 175 -185 152 -188 q 222 -164 197 -181 q 277 -111 248 -147 q 334 -13 305 -76 l 341 1 q 308 -2 326 -1 q 270 -2 290 -2 q 238 -2 256 -2 q 206 0 220 -2 l 141 718 "},"Á":{"x_min":34.71875,"x_max":876.890625,"ha":879,"o":"m 501 998 q 560 1004 529 1002 q 619 1007 591 1007 q 733 998 676 1007 l 855 0 q 754 -8 802 -8 q 650 0 705 -8 l 632 201 l 327 201 l 238 0 q 134 -8 188 -8 q 34 0 81 -8 l 501 998 m 616 368 l 580 768 l 402 368 l 616 368 m 643 1227 q 691 1232 660 1230 q 754 1234 722 1234 q 826 1232 790 1234 q 876 1227 861 1230 l 679 1077 q 639 1073 665 1075 q 585 1072 612 1072 q 528 1074 557 1072 q 489 1079 500 1076 l 643 1227 "},"g":{"x_min":45.84375,"x_max":818.125,"ha":793,"o":"m 600 569 q 575 572 587 572 q 552 573 563 573 q 438 540 486 573 q 361 457 391 506 q 317 350 331 408 q 302 245 302 293 q 320 168 302 195 q 372 141 337 141 q 495 222 438 141 q 579 451 552 304 l 600 569 m 536 134 q 431 27 495 70 q 284 -16 368 -16 q 146 42 193 -16 q 100 197 100 101 q 131 397 100 301 q 224 569 162 494 q 378 689 286 644 q 593 734 470 734 q 818 702 713 734 l 695 15 q 627 -164 676 -95 q 512 -272 577 -233 q 374 -325 447 -311 q 233 -338 301 -338 q 118 -330 165 -338 q 45 -313 70 -322 q 49 -270 47 -290 q 55 -233 51 -251 q 66 -197 59 -215 q 86 -156 73 -179 q 146 -170 108 -163 q 229 -176 184 -176 q 310 -170 268 -176 q 392 -141 352 -163 q 464 -75 431 -119 q 515 47 497 -30 l 536 134 "},"²":{"x_min":137.515625,"x_max":623.65625,"ha":625,"o":"m 137 448 l 350 652 q 421 727 388 690 q 454 802 454 763 q 388 865 454 865 q 326 856 356 865 q 263 832 295 847 q 242 885 252 855 q 229 950 231 915 q 323 984 269 969 q 430 998 377 998 q 573 953 523 998 q 623 837 623 908 q 612 766 623 797 q 581 706 601 734 q 536 652 562 677 q 479 597 509 626 l 434 555 l 601 555 q 595 489 601 523 q 577 423 590 455 l 143 423 l 137 448 "},"ë":{"x_min":106.953125,"x_max":775.34375,"ha":707,"o":"m 300 272 q 344 172 308 205 q 450 140 380 140 q 547 152 505 140 q 637 183 590 163 q 667 115 659 155 q 675 31 675 76 q 620 11 651 20 q 555 -3 588 2 q 488 -13 522 -9 q 429 -16 455 -16 q 284 4 344 -16 q 184 63 223 25 q 125 156 144 101 q 106 277 106 211 q 136 444 106 362 q 218 591 165 526 q 349 695 272 655 q 522 734 426 734 q 607 723 568 734 q 676 689 647 712 q 722 633 705 666 q 738 555 738 600 q 709 447 738 493 q 631 369 680 401 q 521 317 583 337 q 393 287 459 297 l 300 272 m 379 413 q 465 435 431 422 q 518 464 498 448 q 544 497 537 480 q 551 530 551 513 q 534 573 551 556 q 487 590 516 590 q 421 574 451 590 q 369 531 391 558 q 331 471 347 505 q 306 402 315 437 l 379 413 m 260 823 q 267 907 261 866 q 289 987 273 947 q 335 993 311 991 q 379 995 360 995 q 423 993 398 995 q 468 987 447 991 q 460 904 466 944 q 439 823 454 863 q 391 818 415 819 q 347 816 368 816 q 304 818 329 816 q 260 823 279 819 m 566 823 q 572 907 565 866 q 596 987 579 947 q 642 993 618 991 q 686 995 667 995 q 730 993 705 995 q 775 987 754 991 q 766 905 772 945 q 746 823 760 865 q 698 818 722 819 q 654 816 673 816 q 610 818 635 816 q 566 823 586 819 "},"Î":{"x_min":109.734375,"x_max":659.515625,"ha":421,"o":"m 284 997 q 387 1007 337 1007 q 436 1004 411 1007 q 488 997 462 1002 l 313 0 q 209 -8 256 -8 q 109 0 159 -8 l 284 997 m 335 1236 q 391 1241 359 1238 q 452 1243 423 1243 q 499 1241 470 1243 q 553 1234 527 1240 l 659 1084 q 573 1076 626 1076 q 522 1078 549 1076 q 473 1086 495 1080 l 431 1154 l 360 1086 q 314 1078 341 1080 q 262 1076 287 1076 q 169 1084 206 1076 l 335 1236 "},"e":{"x_min":106.953125,"x_max":738.953125,"ha":707,"o":"m 300 272 q 344 172 308 205 q 450 140 380 140 q 547 152 505 140 q 637 183 590 163 q 667 115 659 155 q 675 31 675 76 q 620 11 651 20 q 555 -3 588 2 q 488 -13 522 -9 q 429 -16 455 -16 q 284 4 344 -16 q 184 63 223 25 q 125 156 144 101 q 106 277 106 211 q 136 444 106 362 q 218 591 165 526 q 349 695 272 655 q 522 734 426 734 q 607 723 568 734 q 676 689 647 712 q 722 633 705 666 q 738 555 738 600 q 709 447 738 493 q 631 369 680 401 q 521 317 583 337 q 393 287 459 297 l 300 272 m 379 413 q 465 435 431 422 q 518 464 498 448 q 544 497 537 480 q 551 530 551 513 q 534 573 551 556 q 487 590 516 590 q 421 574 451 590 q 369 531 391 558 q 331 471 347 505 q 306 402 315 437 l 379 413 "},"Ã":{"x_min":34.71875,"x_max":900.015625,"ha":879,"o":"m 501 998 q 560 1004 529 1002 q 619 1007 591 1007 q 733 998 676 1007 l 855 0 q 754 -8 802 -8 q 650 0 705 -8 l 632 201 l 327 201 l 238 0 q 134 -8 188 -8 q 34 0 81 -8 l 501 998 m 616 368 l 580 768 l 402 368 l 616 368 m 394 1180 q 466 1234 422 1211 q 562 1258 511 1258 q 611 1250 588 1258 q 656 1234 634 1243 q 702 1217 679 1225 q 752 1209 726 1209 q 797 1216 776 1209 q 851 1248 819 1222 q 882 1200 868 1229 q 900 1145 897 1172 q 826 1093 870 1115 q 730 1070 781 1070 q 680 1078 704 1070 q 634 1095 656 1086 q 588 1111 611 1104 q 540 1119 565 1119 q 494 1111 513 1119 q 443 1080 474 1104 q 412 1125 427 1097 q 394 1180 397 1154 "},"J":{"x_min":48.609375,"x_max":648.65625,"ha":579,"o":"m 415 826 l 258 826 q 261 868 259 845 q 268 913 263 891 q 276 957 270 936 q 288 998 281 979 l 648 998 l 519 265 q 406 47 491 112 q 183 -16 320 -16 q 113 -11 148 -16 q 48 1 79 -6 q 54 83 50 38 q 80 169 59 127 q 120 161 95 165 q 172 156 145 156 q 219 160 195 156 q 263 177 243 163 q 298 218 283 191 q 322 294 313 245 l 415 826 "},"»":{"x_min":48.609375,"x_max":925.984375,"ha":913,"o":"m 348 386 l 170 677 q 281 686 225 686 q 373 677 329 686 l 556 358 l 269 61 q 220 54 247 56 q 169 52 193 52 q 109 54 141 52 q 48 61 76 56 l 348 386 m 717 386 l 539 677 q 650 686 594 686 q 742 677 698 686 l 925 358 l 638 61 q 589 54 616 56 q 538 52 562 52 q 478 54 510 52 q 417 61 445 56 l 717 386 "},"©":{"x_min":138.90625,"x_max":1169.53125,"ha":1142,"o":"m 797 365 q 818 309 811 343 q 826 240 826 276 q 750 220 786 225 q 675 215 715 215 q 559 238 609 215 q 476 299 509 261 q 425 389 443 337 q 408 500 408 441 q 425 609 408 556 q 476 700 443 661 q 558 763 509 740 q 669 787 607 787 q 747 782 716 787 q 819 761 779 776 q 813 698 819 733 q 794 636 808 663 q 738 650 761 647 q 688 654 716 654 q 594 614 627 654 q 561 500 561 575 q 596 383 561 420 q 688 345 632 345 q 741 348 720 345 q 797 365 762 351 m 654 84 q 823 116 748 84 q 950 204 898 148 q 1030 335 1002 259 q 1058 498 1058 411 q 1030 661 1058 586 q 950 793 1002 737 q 823 880 898 848 q 654 912 748 912 q 484 880 559 912 q 357 793 409 848 q 277 661 305 737 q 250 498 250 586 q 277 335 250 411 q 357 204 305 259 q 484 116 409 148 q 654 84 559 84 m 654 -18 q 443 21 538 -18 q 281 129 348 61 q 176 293 213 198 q 138 498 138 387 q 176 703 138 608 q 281 867 213 798 q 443 975 348 936 q 654 1015 538 1015 q 864 976 769 1015 q 1027 868 959 937 q 1132 704 1094 798 q 1169 498 1169 609 q 1132 293 1169 387 q 1027 129 1094 198 q 864 21 959 61 q 654 -18 769 -18 "},"ò":{"x_min":108.34375,"x_max":790.34375,"ha":775,"o":"m 386 -16 q 175 58 243 -16 q 108 263 108 133 q 133 431 108 347 q 208 582 158 515 q 334 692 258 650 q 511 734 409 734 q 722 658 655 734 q 790 451 790 581 q 766 281 790 365 q 691 131 741 198 q 565 24 641 65 q 386 -16 488 -16 m 404 133 q 493 166 456 133 q 552 249 529 200 q 584 353 575 298 q 594 452 594 408 q 490 580 594 580 q 402 545 437 580 q 345 461 368 511 q 314 355 323 411 q 305 256 305 300 q 404 133 305 133 m 334 998 q 387 1004 362 1002 q 449 1007 413 1007 q 574 998 517 1007 l 698 827 q 607 819 652 819 q 555 822 580 819 q 512 827 530 825 l 334 998 "},"^":{"x_min":145.84375,"x_max":747.28125,"ha":743,"o":"m 498 805 l 330 502 q 281 496 308 498 q 236 494 255 494 q 195 495 218 494 q 145 504 173 497 q 292 751 219 629 q 438 997 365 873 q 531 1005 486 1005 q 579 1004 555 1005 q 627 997 602 1002 q 688 751 658 873 q 747 504 718 629 q 695 495 716 497 q 655 494 673 494 q 611 495 633 494 q 569 504 588 497 l 498 805 "},"«":{"x_min":120.84375,"x_max":998.828125,"ha":901,"o":"m 120 373 l 412 677 q 506 686 455 686 q 567 684 534 686 q 627 677 600 682 l 331 361 l 505 61 q 394 52 451 52 q 302 61 345 52 l 120 373 m 491 373 l 783 677 q 877 686 826 686 q 938 684 905 686 q 998 677 971 682 l 702 361 l 876 61 q 765 52 822 52 q 673 61 716 52 l 491 373 "},"D":{"x_min":109.734375,"x_max":983.40625,"ha":953,"o":"m 284 997 q 398 1009 340 1004 q 522 1015 456 1015 q 714 987 629 1015 q 859 907 800 959 q 951 779 919 855 q 983 608 983 704 q 936 341 983 458 q 804 145 888 225 q 602 25 719 66 q 345 -16 484 -16 q 215 -11 266 -16 q 109 0 163 -6 l 284 997 m 341 161 q 411 156 366 156 q 554 188 490 156 q 666 277 619 220 q 739 413 713 334 q 765 588 765 493 q 747 700 765 652 q 700 779 730 748 q 629 825 670 809 q 540 840 587 840 q 495 839 511 840 q 461 836 480 838 l 341 161 "},"ÿ":{"x_min":37.5,"x_max":812.5625,"ha":753,"o":"m 141 718 q 248 726 193 726 q 345 718 297 726 l 383 90 q 474 288 437 204 q 536 432 511 372 q 574 533 561 493 q 594 601 587 573 q 602 647 601 629 q 604 683 604 666 q 602 704 604 697 q 600 718 601 711 q 650 724 623 722 q 704 726 676 726 q 808 718 759 726 q 812 688 812 705 q 806 636 812 665 q 791 579 800 608 q 771 525 782 551 q 752 477 761 498 q 652 257 716 391 q 486 -81 587 123 q 401 -219 443 -168 q 316 -297 359 -270 q 230 -331 273 -323 q 143 -338 187 -338 q 88 -334 111 -338 q 37 -322 65 -330 q 48 -245 40 -281 q 76 -176 56 -209 q 106 -185 88 -181 q 136 -188 123 -188 q 175 -185 152 -188 q 222 -164 197 -181 q 277 -111 248 -147 q 334 -13 305 -76 l 341 1 q 308 -2 326 -1 q 270 -2 290 -2 q 238 -2 256 -2 q 206 0 220 -2 l 141 718 m 246 823 q 253 907 247 866 q 275 987 259 947 q 321 993 297 991 q 365 995 346 995 q 409 993 384 995 q 454 987 433 991 q 446 904 452 944 q 425 823 440 863 q 377 818 401 819 q 333 816 354 816 q 290 818 315 816 q 246 823 265 819 m 552 823 q 558 907 551 866 q 582 987 565 947 q 628 993 604 991 q 672 995 653 995 q 716 993 691 995 q 761 987 740 991 q 752 905 758 945 q 732 823 746 865 q 684 818 708 819 q 640 816 659 816 q 596 818 621 816 q 552 823 572 819 "},"í":{"x_min":134.734375,"x_max":580.328125,"ha":433,"o":"m 234 568 l 147 568 q 146 576 147 572 q 145 586 145 580 q 152 653 145 622 q 173 718 159 684 l 454 718 l 327 0 q 227 -8 275 -8 q 134 0 184 -8 l 234 568 m 340 998 q 465 1007 395 1007 q 526 1004 501 1007 q 580 998 552 1002 l 384 827 q 341 822 366 825 q 288 819 316 819 q 198 827 244 819 l 340 998 "},"w":{"x_min":134.734375,"x_max":1190.375,"ha":1120,"o":"m 134 718 q 248 726 188 726 q 296 725 272 726 q 344 718 320 723 l 363 219 l 570 718 q 665 726 613 726 q 766 718 716 726 l 805 218 l 940 530 q 972 626 963 584 q 980 695 980 668 q 979 708 980 702 q 979 718 979 713 q 1084 726 1025 726 q 1190 718 1141 726 l 1190 712 q 1175 619 1190 668 q 1125 504 1159 570 l 866 0 q 810 -6 841 -4 q 751 -8 779 -8 q 655 0 701 -8 l 615 456 l 419 0 q 363 -5 393 -2 q 306 -8 334 -8 q 256 -6 283 -8 q 208 0 230 -4 l 134 718 "},"$":{"x_min":105.5625,"x_max":851.453125,"ha":833,"o":"m 362 -16 l 354 -16 q 228 -6 287 -16 q 105 31 169 4 q 119 115 111 73 q 148 206 127 158 q 256 169 201 181 q 366 156 312 156 q 446 166 409 156 q 510 193 483 176 q 552 236 537 211 q 568 291 568 261 q 555 344 568 322 q 520 385 543 366 q 470 421 498 404 q 409 458 441 438 q 329 512 363 486 q 274 568 295 538 q 241 632 252 598 q 230 711 230 666 q 313 908 230 832 q 540 1000 395 984 l 562 1123 q 623 1132 593 1132 q 683 1123 654 1132 l 661 1002 q 758 987 713 998 q 851 957 802 976 q 835 878 845 919 q 800 797 825 837 q 714 829 759 816 q 601 841 669 841 q 547 837 576 841 q 496 821 519 833 q 458 788 473 809 q 443 734 443 768 q 477 664 443 694 q 575 595 511 634 q 659 541 620 568 q 727 484 698 515 q 772 416 755 454 q 788 329 788 379 q 770 218 788 272 q 713 120 751 165 q 618 43 676 76 q 483 -4 561 11 l 456 -163 q 395 -172 425 -172 q 336 -163 365 -172 l 362 -16 "},"\\":{"x_min":173.625,"x_max":688.9375,"ha":682,"o":"m 173 998 q 269 1007 223 1007 q 369 998 316 1007 l 688 1 q 591 -8 641 -8 q 543 -6 568 -8 q 491 1 519 -4 l 173 998 "},"Ì":{"x_min":109.734375,"x_max":548.71875,"ha":421,"o":"m 284 997 q 387 1007 337 1007 q 436 1004 411 1007 q 488 997 462 1002 l 313 0 q 209 -8 256 -8 q 109 0 159 -8 l 284 997 m 183 1240 q 204 1242 190 1241 q 238 1244 219 1243 q 277 1246 257 1245 q 315 1247 297 1247 q 378 1245 347 1247 q 426 1240 409 1243 l 548 1079 q 510 1073 537 1076 q 455 1070 483 1070 q 404 1072 427 1070 q 366 1076 380 1073 l 183 1240 "},"µ":{"x_min":26.390625,"x_max":837.5625,"ha":810,"o":"m 211 718 q 308 726 258 726 q 405 718 356 726 l 337 344 q 328 290 333 320 q 323 237 323 261 q 349 160 323 184 q 426 136 375 136 q 519 179 486 136 q 568 301 552 222 l 643 718 q 740 726 688 726 q 837 718 788 726 l 708 -1 q 678 -6 693 -4 q 640 -8 663 -8 q 596 -6 618 -8 q 558 0 575 -4 q 556 45 555 20 q 559 90 556 70 q 481 8 525 33 q 384 -16 437 -16 q 319 -3 347 -16 q 279 27 291 9 l 218 -329 q 167 -334 191 -333 q 119 -336 143 -336 q 72 -334 94 -336 q 26 -329 50 -333 l 211 718 "},"Ç":{"x_min":144.453125,"x_max":922.296875,"ha":797,"o":"m 404 -155 l 477 -12 q 227 109 309 6 q 144 366 144 211 q 184 619 144 501 q 297 825 225 737 q 473 964 370 913 q 701 1015 576 1015 q 817 1007 766 1015 q 922 975 868 1000 q 900 894 913 932 q 863 812 887 857 q 781 836 816 830 q 713 841 745 841 q 554 801 620 841 q 445 696 487 761 q 382 550 402 632 q 362 384 362 468 q 421 215 362 270 q 590 159 480 159 q 629 161 611 159 q 665 165 647 162 q 704 174 683 168 q 751 188 725 180 q 775 108 766 152 q 787 20 784 63 q 729 2 759 9 q 670 -8 700 -4 q 614 -14 641 -12 q 568 -16 587 -16 l 537 -73 q 570 -70 548 -70 q 656 -100 625 -70 q 688 -183 688 -129 q 670 -256 688 -227 q 621 -303 651 -286 q 553 -327 591 -320 q 477 -334 515 -334 q 403 -327 437 -334 q 356 -309 369 -319 q 371 -264 362 -287 q 395 -220 380 -241 q 440 -232 419 -227 q 481 -237 461 -237 q 506 -236 491 -237 q 533 -230 520 -234 q 554 -217 545 -226 q 563 -193 563 -208 q 545 -161 563 -169 q 494 -152 526 -152 q 453 -155 475 -152 q 412 -165 431 -158 l 404 -155 "},"-":{"x_min":140.28125,"x_max":516.90625,"ha":508,"o":"m 516 493 q 509 406 518 450 q 487 322 501 362 l 140 322 q 147 405 140 363 q 169 493 155 447 l 516 493 "},"Q":{"x_min":138.90625,"x_max":998.6875,"ha":967,"o":"m 963 -77 q 958 -120 962 -97 q 947 -167 954 -144 q 935 -209 941 -190 q 923 -241 929 -229 l 591 -186 q 603 -106 594 -150 q 633 -25 612 -62 l 963 -77 m 483 -16 q 222 81 306 -16 q 138 355 138 180 q 152 509 138 430 q 193 661 165 587 q 262 799 220 734 q 361 911 304 863 q 492 987 419 959 q 654 1015 565 1015 q 807 988 741 1015 q 914 913 872 962 q 977 795 957 865 q 998 636 998 725 q 985 482 998 561 q 944 331 972 404 q 874 195 916 259 q 775 84 832 131 q 645 10 718 37 q 483 -16 572 -16 m 501 152 q 597 177 555 152 q 671 240 640 201 q 725 332 702 280 q 760 439 747 384 q 779 548 773 494 q 786 647 786 602 q 636 841 786 841 q 539 817 581 841 q 465 753 497 793 q 411 661 433 713 q 375 554 388 609 q 356 445 362 500 q 350 345 350 391 q 501 152 350 152 "},"M":{"x_min":106.953125,"x_max":1161.203125,"ha":1126,"o":"m 318 997 q 427 1007 375 1007 q 476 1004 454 1007 q 525 997 498 1001 l 640 440 l 963 997 q 1012 1004 987 1002 q 1062 1007 1037 1007 q 1111 1004 1086 1007 q 1161 997 1137 1002 l 1030 0 q 929 -8 973 -8 q 837 0 880 -8 l 930 654 l 666 208 q 625 203 645 205 q 586 201 605 201 q 547 202 566 201 q 509 208 529 204 l 419 659 l 284 0 q 194 -8 236 -8 q 106 0 152 -8 l 318 997 "},"C":{"x_min":143.0625,"x_max":920.90625,"ha":796,"o":"m 750 188 q 774 108 765 152 q 786 20 783 63 q 720 0 755 8 q 653 -10 686 -6 q 592 -15 620 -13 q 547 -16 563 -16 q 370 11 445 -16 q 243 89 294 38 q 168 210 193 140 q 143 366 143 280 q 183 619 143 501 q 296 825 223 737 q 472 964 369 913 q 700 1015 575 1015 q 816 1007 765 1015 q 920 975 866 1000 q 899 894 912 932 q 862 812 886 857 q 779 836 815 830 q 712 841 744 841 q 552 801 619 841 q 443 696 486 761 q 381 550 401 632 q 361 384 361 468 q 420 215 361 270 q 588 159 479 159 q 627 161 609 159 q 663 165 645 162 q 702 174 682 168 q 750 188 723 180 "},"!":{"x_min":95.84375,"x_max":483.375,"ha":400,"o":"m 269 998 q 325 1005 298 1004 q 377 1007 351 1007 q 429 1005 402 1007 q 483 998 456 1004 l 347 319 q 298 313 320 315 q 252 311 276 311 q 159 319 205 311 l 269 998 m 130 202 q 183 210 158 208 q 233 212 208 212 q 282 210 256 212 q 333 202 308 208 q 324 100 333 148 q 298 0 315 51 q 245 -7 270 -5 q 195 -9 220 -9 q 146 -7 172 -9 q 95 0 120 -5 q 104 102 95 54 q 130 202 113 151 "},"ç":{"x_min":106.953125,"x_max":698.671875,"ha":639,"o":"m 262 -155 l 337 -11 q 162 79 218 5 q 106 272 106 154 q 134 436 106 354 q 213 585 161 519 q 343 693 266 651 q 522 734 420 734 q 613 727 569 734 q 698 705 658 720 q 686 628 697 669 q 651 550 675 587 q 591 569 620 562 q 525 576 561 576 q 430 552 470 576 q 363 488 390 527 q 322 397 336 448 q 309 290 309 345 q 348 177 309 213 q 447 141 387 141 q 507 147 477 141 q 581 170 537 152 q 606 111 597 145 q 616 19 616 76 q 528 -7 575 0 q 426 -16 481 -15 l 395 -73 q 429 -70 406 -70 q 515 -100 483 -70 q 547 -183 547 -129 q 528 -256 547 -227 q 479 -303 509 -286 q 411 -327 450 -320 q 336 -334 373 -334 q 261 -327 295 -334 q 215 -309 227 -319 q 229 -264 220 -287 q 254 -220 238 -241 q 298 -232 277 -227 q 340 -237 319 -237 q 364 -236 350 -237 q 391 -230 379 -234 q 413 -217 404 -226 q 422 -193 422 -208 q 403 -161 422 -169 q 352 -152 384 -152 q 311 -155 333 -152 q 270 -165 290 -158 l 262 -155 "},"È":{"x_min":109.734375,"x_max":833.40625,"ha":736,"o":"m 284 998 l 832 998 q 832 987 832 993 q 833 976 833 982 q 825 902 833 940 q 801 826 816 865 l 456 826 l 419 609 l 693 609 q 662 436 693 526 l 388 436 l 341 172 l 695 172 q 696 161 695 166 q 697 151 697 156 q 688 77 697 113 q 666 0 679 40 l 109 0 l 284 998 m 334 1240 q 355 1242 341 1241 q 389 1244 370 1243 q 428 1246 408 1245 q 466 1247 448 1247 q 529 1245 498 1247 q 577 1240 560 1243 l 699 1079 q 661 1073 688 1076 q 606 1070 634 1070 q 555 1072 578 1070 q 517 1076 531 1073 l 334 1240 "},"{":{"x_min":129.171875,"x_max":688.9375,"ha":536,"o":"m 211 202 q 215 234 213 218 q 216 265 216 250 q 197 352 216 312 q 129 422 179 391 l 134 455 q 200 492 173 472 q 244 538 226 512 q 275 597 262 563 q 297 675 287 630 l 316 795 q 355 924 333 868 q 413 1018 377 980 q 504 1075 450 1055 q 640 1094 559 1094 q 688 1088 670 1094 q 679 1011 688 1052 q 658 937 669 969 q 645 938 651 938 q 634 938 640 938 q 571 927 595 938 q 532 892 547 915 q 510 836 518 869 q 494 758 502 802 q 464 618 479 675 q 431 525 450 562 q 388 465 412 487 q 330 427 363 443 q 386 374 366 408 q 405 273 405 340 q 399 217 405 252 q 386 142 393 181 q 372 64 379 102 q 366 0 366 26 q 386 -59 366 -40 q 459 -77 406 -77 l 479 -77 q 473 -150 479 -115 q 454 -226 468 -186 q 427 -229 440 -229 q 401 -229 413 -229 q 231 -179 283 -229 q 179 -31 179 -129 q 181 19 179 -8 q 188 75 184 47 l 211 202 "},"X":{"x_min":36.109375,"x_max":984.796875,"ha":874,"o":"m 525 518 l 765 998 q 873 1007 820 1007 q 928 1005 900 1007 q 984 1000 957 1004 l 727 526 l 862 0 q 803 -6 830 -4 q 751 -8 776 -8 q 702 -6 727 -8 q 644 1 677 -4 l 525 518 m 313 515 l 223 1000 q 281 1005 252 1004 q 336 1007 309 1007 q 384 1004 362 1007 q 433 998 406 1002 l 515 518 l 263 1 q 196 -6 227 -4 q 141 -8 165 -8 q 91 -6 116 -8 q 36 0 66 -4 l 313 515 "},"ô":{"x_min":108.34375,"x_max":790.34375,"ha":775,"o":"m 386 -16 q 175 58 243 -16 q 108 263 108 133 q 133 431 108 347 q 208 582 158 515 q 334 692 258 650 q 511 734 409 734 q 722 658 655 734 q 790 451 790 581 q 766 281 790 365 q 691 131 741 198 q 565 24 641 65 q 386 -16 488 -16 m 404 133 q 493 166 456 133 q 552 249 529 200 q 584 353 575 298 q 594 452 594 408 q 490 580 594 580 q 402 545 437 580 q 345 461 368 511 q 314 355 323 411 q 305 256 305 300 q 404 133 305 133 m 450 998 q 505 1003 473 1001 q 566 1005 537 1005 q 613 1004 584 1005 q 668 997 641 1002 l 773 826 q 687 818 740 818 q 637 820 664 818 q 589 827 611 822 l 547 916 l 476 827 q 429 820 457 822 q 376 818 401 818 q 283 826 321 818 l 450 998 "},"¼":{"x_min":197.703125,"x_max":1407.46875,"ha":1458,"o":"m 333 554 l 376 800 l 272 761 q 241 816 252 788 q 226 880 230 844 l 504 988 l 561 988 l 486 554 l 604 554 q 600 485 607 522 q 580 423 594 448 l 198 423 q 201 491 195 456 q 222 554 206 525 l 333 554 m 1090 984 q 1187 993 1137 993 q 1283 984 1230 993 l 611 2 q 518 -5 562 -5 q 419 2 471 -5 l 1090 984 m 901 128 l 1194 580 q 1264 562 1229 576 q 1322 528 1298 547 l 1109 214 l 1215 214 l 1234 322 q 1263 325 1250 325 q 1298 326 1276 326 q 1368 322 1339 326 l 1350 214 l 1407 214 q 1403 158 1408 186 q 1389 103 1398 130 l 1332 103 l 1315 1 q 1282 -2 1297 -1 q 1247 -3 1268 -3 q 1180 1 1207 -3 l 1197 103 l 911 103 l 901 128 "},"#":{"x_min":129.171875,"x_max":1059.8125,"ha":1020,"o":"m 286 284 l 129 284 q 136 356 129 320 q 155 431 143 391 l 323 431 l 368 600 l 212 600 q 238 748 212 677 l 406 748 l 461 958 q 504 963 484 962 q 548 965 525 965 q 589 963 569 965 q 629 958 609 962 l 575 748 l 744 748 l 798 958 q 842 963 822 962 q 886 965 862 965 q 927 963 907 965 q 968 958 947 962 l 913 748 l 1059 748 q 1052 677 1057 712 q 1033 600 1047 641 l 876 600 l 832 431 l 976 431 q 970 360 976 395 q 951 284 963 325 l 794 284 l 732 41 q 686 36 707 37 q 644 34 666 34 q 602 36 622 34 q 562 41 583 37 l 625 284 l 456 284 l 394 41 q 350 36 370 37 q 305 34 329 34 q 265 36 284 34 q 223 41 245 37 l 286 284 m 662 431 l 707 600 l 537 600 l 493 431 l 662 431 "},"Ê":{"x_min":109.734375,"x_max":833.40625,"ha":736,"o":"m 284 998 l 832 998 q 832 987 832 993 q 833 976 833 982 q 825 902 833 940 q 801 826 816 865 l 456 826 l 419 609 l 693 609 q 662 436 693 526 l 388 436 l 341 172 l 695 172 q 696 161 695 166 q 697 151 697 156 q 688 77 697 113 q 666 0 679 40 l 109 0 l 284 998 m 503 1236 q 559 1241 527 1238 q 620 1243 591 1243 q 667 1241 638 1243 q 721 1234 695 1240 l 827 1084 q 741 1076 794 1076 q 690 1078 717 1076 q 641 1086 663 1080 l 599 1154 l 528 1086 q 482 1078 509 1080 q 430 1076 455 1076 q 337 1084 374 1076 l 503 1236 "},")":{"x_min":-6.9375,"x_max":484.765625,"ha":533,"o":"m -6 -230 q 209 190 136 -31 q 283 657 283 412 q 276 802 283 734 q 260 925 269 870 q 240 1018 251 979 q 223 1076 230 1057 q 273 1084 245 1082 q 329 1086 301 1086 q 379 1083 356 1086 q 416 1076 402 1080 q 441 998 429 1043 q 463 898 454 952 q 479 784 473 844 q 484 659 484 723 q 457 357 484 494 q 387 111 430 220 q 293 -83 344 1 q 191 -230 241 -168 q 153 -237 176 -234 q 98 -240 130 -240 q 41 -238 70 -240 q -6 -230 12 -236 "},"Å":{"x_min":38.890625,"x_max":859.796875,"ha":899,"o":"m 505 998 q 472 1046 486 1018 q 459 1107 459 1075 q 474 1183 459 1148 q 513 1244 488 1218 q 574 1285 538 1270 q 651 1300 609 1300 q 768 1255 726 1300 q 809 1145 809 1211 q 788 1059 809 1098 q 737 995 768 1020 l 859 0 q 758 -8 807 -8 q 654 0 709 -8 l 636 201 l 331 201 l 243 0 q 138 -8 193 -8 q 38 0 86 -8 l 505 998 m 620 368 l 586 779 l 406 368 l 620 368 m 625 1043 q 681 1071 661 1043 q 701 1137 701 1100 q 688 1191 701 1169 q 644 1212 676 1212 q 586 1185 607 1212 q 566 1118 566 1158 q 579 1064 566 1086 q 625 1043 593 1043 "},"ø":{"x_min":91.671875,"x_max":815.34375,"ha":775,"o":"m 170 63 q 123 150 138 100 q 108 263 108 201 q 133 431 108 347 q 208 582 158 515 q 334 692 258 650 q 511 734 409 734 q 669 698 605 734 l 709 750 q 758 754 726 754 q 788 753 772 754 q 815 750 804 752 l 733 645 q 790 451 790 572 q 766 281 790 365 q 691 131 741 198 q 565 24 641 65 q 386 -16 488 -16 q 236 13 300 -16 l 197 -36 q 172 -39 187 -38 q 143 -40 156 -40 q 114 -39 127 -40 q 91 -36 101 -38 l 170 63 m 558 558 q 490 580 531 580 q 402 545 437 580 q 345 461 368 511 q 314 355 323 411 q 305 256 305 300 l 305 236 l 558 558 m 594 468 l 344 150 q 404 133 366 133 q 493 166 456 133 q 552 249 529 200 q 584 353 575 298 q 594 452 594 408 l 594 468 "},"â":{"x_min":100.015625,"x_max":810.890625,"ha":790,"o":"m 598 569 q 574 572 586 572 q 551 573 562 573 q 438 540 484 573 q 361 456 391 506 q 316 349 330 406 q 302 244 302 291 q 370 141 302 141 q 494 222 437 141 q 577 451 551 304 l 598 569 m 741 311 q 719 156 726 223 q 712 51 712 88 q 712 25 712 36 q 713 2 712 15 q 623 -5 668 -5 q 537 2 584 -5 q 531 29 534 13 q 529 75 529 44 q 529 101 529 87 q 531 133 529 115 q 429 26 491 69 q 283 -16 366 -16 q 145 41 191 -16 q 100 195 100 100 q 131 397 100 300 q 224 569 162 494 q 377 689 286 644 q 591 734 469 734 q 705 726 652 734 q 809 702 758 718 l 741 311 m 487 998 q 542 1003 510 1001 q 603 1005 574 1005 q 650 1004 621 1005 q 705 997 678 1002 l 810 826 q 724 818 777 818 q 674 820 701 818 q 626 827 648 822 l 584 916 l 513 827 q 466 820 494 822 q 413 818 438 818 q 320 826 358 818 l 487 998 "},"}":{"x_min":1.390625,"x_max":561.15625,"ha":524,"o":"m 373 76 q 334 -52 356 2 q 276 -145 312 -108 q 185 -202 240 -183 q 50 -222 130 -222 q 1 -216 19 -222 q 11 -138 1 -180 q 31 -65 20 -97 q 44 -66 38 -66 q 55 -66 50 -66 q 118 -54 94 -66 q 156 -20 141 -43 q 179 36 170 2 q 195 113 187 69 q 225 253 209 197 q 259 347 240 309 q 302 406 277 384 q 359 444 326 429 q 304 497 323 463 q 284 598 284 531 q 291 654 284 619 q 304 729 297 690 q 317 807 311 769 q 323 872 323 844 q 303 931 323 912 q 230 950 283 950 l 211 950 q 216 1023 211 987 q 236 1098 222 1058 q 263 1101 250 1101 q 288 1101 276 1101 q 459 1051 406 1101 q 511 904 511 1001 q 508 852 511 880 q 501 797 505 825 l 479 669 q 475 638 476 654 q 473 607 473 622 q 492 520 473 559 q 561 450 511 480 l 555 416 q 490 379 516 400 q 445 334 463 359 q 415 275 427 308 q 393 197 402 241 l 373 76 "},"Ä":{"x_min":34.71875,"x_max":894.84375,"ha":879,"o":"m 501 998 q 560 1004 529 1002 q 619 1007 591 1007 q 733 998 676 1007 l 855 0 q 754 -8 802 -8 q 650 0 705 -8 l 632 201 l 327 201 l 238 0 q 134 -8 188 -8 q 34 0 81 -8 l 501 998 m 616 368 l 580 768 l 402 368 l 616 368 m 379 1079 q 387 1162 380 1122 q 408 1243 393 1202 q 455 1249 430 1247 q 498 1251 479 1251 q 542 1249 518 1251 q 587 1243 567 1247 q 580 1159 586 1200 q 558 1079 573 1119 q 511 1073 535 1075 q 467 1072 487 1072 q 423 1073 448 1072 q 379 1079 398 1075 m 686 1079 q 692 1162 685 1122 q 715 1243 698 1202 q 762 1249 737 1247 q 805 1251 786 1251 q 849 1249 825 1251 q 894 1243 874 1247 q 885 1161 892 1201 q 865 1079 879 1120 q 817 1073 842 1075 q 774 1072 793 1072 q 730 1073 754 1072 q 686 1079 705 1075 "},"₈":{"x_min":115.453125,"x_max":600.21875,"ha":625,"o":"m 246 296 q 194 405 194 337 q 211 478 194 447 q 259 532 229 510 q 330 565 289 554 q 418 576 371 576 q 552 539 505 576 q 600 443 600 501 q 569 362 600 398 q 500 301 539 325 q 560 251 533 282 q 587 176 587 221 q 564 94 587 129 q 504 34 541 58 q 419 -1 466 9 q 323 -13 372 -13 q 244 -6 282 -13 q 177 18 207 1 q 132 61 148 34 q 115 125 115 87 q 155 225 115 183 q 246 296 194 268 m 339 239 q 293 207 315 228 q 272 155 272 187 q 290 119 272 134 q 343 103 308 103 q 398 114 373 103 q 423 158 423 126 q 414 184 423 172 q 392 207 405 197 q 364 225 379 216 q 339 239 350 233 m 400 351 q 439 380 422 364 q 455 422 455 397 q 441 452 455 437 q 401 466 427 466 q 355 453 373 466 q 337 416 337 440 q 359 375 337 393 q 400 351 380 358 "},"¸":{"x_min":166.6875,"x_max":498.65625,"ha":695,"o":"m 213 -155 l 312 33 l 405 33 l 347 -73 q 380 -70 358 -70 q 466 -100 434 -70 q 498 -183 498 -129 q 479 -256 498 -227 q 431 -303 461 -286 q 363 -327 401 -320 q 287 -334 325 -334 q 213 -327 247 -334 q 166 -309 179 -319 q 181 -264 172 -287 q 205 -220 190 -241 q 250 -232 229 -227 q 291 -237 270 -237 q 315 -236 301 -237 q 343 -230 330 -234 q 364 -217 355 -226 q 373 -193 373 -208 q 354 -161 373 -169 q 304 -152 336 -152 q 263 -155 284 -152 q 222 -165 241 -158 l 213 -155 "},"a":{"x_min":100.015625,"x_max":809.78125,"ha":790,"o":"m 598 569 q 574 572 586 572 q 551 573 562 573 q 438 540 484 573 q 361 456 391 506 q 316 349 330 406 q 302 244 302 291 q 370 141 302 141 q 494 222 437 141 q 577 451 551 304 l 598 569 m 741 311 q 719 156 726 223 q 712 51 712 88 q 712 25 712 36 q 713 2 712 15 q 623 -5 668 -5 q 537 2 584 -5 q 531 29 534 13 q 529 75 529 44 q 529 101 529 87 q 531 133 529 115 q 429 26 491 69 q 283 -16 366 -16 q 145 41 191 -16 q 100 195 100 100 q 131 397 100 300 q 224 569 162 494 q 377 689 286 644 q 591 734 469 734 q 705 726 652 734 q 809 702 758 718 l 741 311 "},"=":{"x_min":168.765625,"x_max":834.78125,"ha":833,"o":"m 783 423 q 777 334 786 381 q 754 255 768 287 l 169 255 q 175 338 166 295 q 198 423 183 380 l 783 423 m 834 709 q 827 627 834 668 q 804 541 820 586 l 219 541 q 226 624 219 583 q 250 709 233 665 l 834 709 "},"N":{"x_min":109.734375,"x_max":993.140625,"ha":925,"o":"m 284 998 q 329 1005 308 1004 q 370 1007 351 1007 q 454 998 412 1007 l 700 363 l 809 998 q 908 1007 859 1007 q 951 1005 930 1007 q 993 998 972 1004 l 816 0 q 732 -8 768 -8 q 650 0 693 -8 l 402 633 l 293 0 q 245 -6 269 -4 q 197 -8 220 -8 q 109 0 152 -8 l 284 998 "},"ú":{"x_min":133.34375,"x_max":837.5625,"ha":813,"o":"m 223 718 q 275 724 250 722 q 325 726 301 726 q 420 718 372 726 l 343 277 q 337 225 337 250 q 355 166 337 183 q 406 150 373 150 q 450 159 426 150 q 500 200 475 169 q 548 288 525 231 q 588 438 572 344 l 640 718 q 741 726 694 726 q 837 718 788 726 l 762 308 q 739 153 747 220 q 732 48 732 86 q 732 22 732 33 q 733 0 732 12 q 641 -8 687 -8 q 555 0 602 -8 q 550 26 552 11 q 547 72 547 41 q 547 97 547 84 q 551 127 548 109 q 509 72 534 98 q 452 26 484 45 q 384 -4 420 6 q 309 -15 347 -15 q 179 27 226 -15 q 133 168 133 69 q 136 212 133 188 q 143 262 138 236 l 223 718 m 575 998 q 700 1007 630 1007 q 761 1004 736 1007 q 815 998 787 1002 l 619 827 q 576 822 601 825 q 523 819 551 819 q 433 827 479 819 l 575 998 "},"2":{"x_min":62.5,"x_max":782,"ha":833,"o":"m 62 19 l 315 287 q 384 359 341 316 q 469 450 427 401 q 541 552 511 500 q 570 651 570 604 q 535 721 570 695 q 443 747 500 747 q 351 734 391 747 q 262 702 311 722 q 230 780 243 738 q 216 865 218 822 q 352 905 288 891 q 494 919 415 919 q 611 904 558 919 q 702 861 663 890 q 761 788 740 832 q 782 686 782 744 q 760 570 782 625 q 704 466 738 516 q 624 366 669 415 q 533 270 579 318 l 436 169 l 743 169 q 736 85 743 126 q 713 0 729 44 l 69 0 l 62 19 "},"ü":{"x_min":133.34375,"x_max":837.5625,"ha":813,"o":"m 223 718 q 275 724 250 722 q 325 726 301 726 q 420 718 372 726 l 343 277 q 337 225 337 250 q 355 166 337 183 q 406 150 373 150 q 450 159 426 150 q 500 200 475 169 q 548 288 525 231 q 588 438 572 344 l 640 718 q 741 726 694 726 q 837 718 788 726 l 762 308 q 739 153 747 220 q 732 48 732 86 q 732 22 732 33 q 733 0 732 12 q 641 -8 687 -8 q 555 0 602 -8 q 550 26 552 11 q 547 72 547 41 q 547 97 547 84 q 551 127 548 109 q 509 72 534 98 q 452 26 484 45 q 384 -4 420 6 q 309 -15 347 -15 q 179 27 226 -15 q 133 168 133 69 q 136 212 133 188 q 143 262 138 236 l 223 718 m 304 823 q 311 907 305 866 q 333 987 317 947 q 379 993 355 991 q 423 995 404 995 q 467 993 442 995 q 512 987 491 991 q 504 904 510 944 q 483 823 498 863 q 435 818 459 819 q 391 816 412 816 q 348 818 373 816 q 304 823 323 819 m 610 823 q 616 907 609 866 q 640 987 623 947 q 686 993 662 991 q 730 995 711 995 q 774 993 749 995 q 819 987 798 991 q 810 905 816 945 q 790 823 804 865 q 742 818 766 819 q 698 816 717 816 q 654 818 679 816 q 610 823 630 819 "},"¯":{"x_min":276.859375,"x_max":670.421875,"ha":695,"o":"m 669 982 q 670 947 670 963 q 666 912 669 930 q 645 841 659 876 l 277 841 q 277 876 276 859 q 280 911 277 893 q 301 982 286 945 l 669 982 "},"Z":{"x_min":31.953125,"x_max":893.125,"ha":743,"o":"m 31 13 l 565 826 l 209 826 q 211 868 209 847 q 216 911 212 888 q 240 998 225 955 l 884 998 l 893 982 l 362 172 l 712 172 q 711 130 713 151 q 705 87 708 109 q 695 43 701 65 q 683 0 690 20 l 38 0 l 31 13 "},"⁸":{"x_min":169.453125,"x_max":654.21875,"ha":625,"o":"m 300 718 q 248 827 248 759 q 265 900 248 869 q 313 954 283 932 q 384 987 343 976 q 472 998 425 998 q 606 961 559 998 q 654 865 654 923 q 623 784 654 820 q 554 723 593 747 q 614 673 587 704 q 641 598 641 643 q 618 516 641 551 q 558 456 595 480 q 473 420 520 431 q 377 408 426 408 q 298 416 336 408 q 231 440 261 423 q 186 483 202 456 q 169 547 169 509 q 209 647 169 605 q 300 718 248 690 m 393 661 q 347 629 369 650 q 326 577 326 609 q 344 541 326 556 q 397 525 362 525 q 452 536 427 525 q 477 580 477 548 q 468 606 477 594 q 446 629 459 619 q 418 647 433 638 q 393 661 404 655 m 454 773 q 493 802 476 786 q 509 844 509 819 q 495 874 509 859 q 455 888 481 888 q 409 875 427 888 q 391 838 391 862 q 413 797 391 815 q 454 773 434 780 "},"u":{"x_min":133.34375,"x_max":837.5625,"ha":813,"o":"m 223 718 q 275 724 250 722 q 325 726 301 726 q 420 718 372 726 l 343 277 q 337 225 337 250 q 355 166 337 183 q 406 150 373 150 q 450 159 426 150 q 500 200 475 169 q 548 288 525 231 q 588 438 572 344 l 640 718 q 741 726 694 726 q 837 718 788 726 l 762 308 q 739 153 747 220 q 732 48 732 86 q 732 22 732 33 q 733 0 732 12 q 641 -8 687 -8 q 555 0 602 -8 q 550 26 552 11 q 547 72 547 41 q 547 97 547 84 q 551 127 548 109 q 509 72 534 98 q 452 26 484 45 q 384 -4 420 6 q 309 -15 347 -15 q 179 27 226 -15 q 133 168 133 69 q 136 212 133 188 q 143 262 138 236 l 223 718 "},"Ó":{"x_min":138.90625,"x_max":998.6875,"ha":967,"o":"m 483 -16 q 222 81 306 -16 q 138 355 138 180 q 152 509 138 430 q 193 661 165 587 q 262 799 220 734 q 361 911 304 863 q 492 987 419 959 q 654 1015 565 1015 q 807 988 741 1015 q 914 913 872 962 q 977 795 957 865 q 998 636 998 725 q 985 482 998 561 q 944 331 972 404 q 874 195 916 259 q 775 84 832 131 q 645 10 718 37 q 483 -16 572 -16 m 501 152 q 597 177 555 152 q 671 240 640 201 q 725 332 702 280 q 760 439 747 384 q 779 548 773 494 q 786 647 786 602 q 636 841 786 841 q 539 817 581 841 q 465 753 497 793 q 411 661 433 713 q 375 554 388 609 q 356 445 362 500 q 350 345 350 391 q 501 152 350 152 m 684 1227 q 732 1232 701 1230 q 795 1234 763 1234 q 867 1232 831 1234 q 917 1227 902 1230 l 720 1077 q 680 1073 706 1075 q 626 1072 653 1072 q 569 1074 598 1072 q 530 1079 541 1076 l 684 1227 "},"k":{"x_min":104.171875,"x_max":823.671875,"ha":750,"o":"m 234 745 q 259 966 259 891 q 259 992 259 982 q 256 1015 258 1002 q 311 1021 280 1019 q 363 1023 341 1023 q 452 1015 404 1023 q 459 962 459 994 q 443 813 459 901 l 300 0 q 198 -8 250 -8 q 104 0 151 -8 l 234 745 m 394 376 l 540 568 q 594 658 580 620 q 609 718 608 695 q 664 725 638 723 q 718 726 690 726 q 771 724 743 726 q 823 718 800 722 q 797 644 819 682 q 736 550 776 607 l 595 375 l 730 0 q 677 -4 701 -2 q 627 -6 652 -6 q 577 -5 601 -6 q 526 0 554 -4 l 394 376 "},"Ù":{"x_min":163.90625,"x_max":1000.078125,"ha":928,"o":"m 277 998 q 331 1005 305 1004 q 381 1007 356 1007 q 429 1005 405 1007 q 480 998 454 1004 l 390 480 q 375 379 380 423 q 369 298 369 334 q 395 192 369 226 q 488 158 422 158 q 575 177 540 158 q 634 235 609 195 q 674 335 658 275 q 705 480 690 395 l 795 998 q 850 1005 826 1004 q 898 1007 875 1007 q 948 1005 923 1007 q 1000 998 973 1004 l 901 437 q 852 241 882 326 q 773 100 823 156 q 647 13 723 43 q 462 -16 572 -16 q 237 52 311 -16 q 163 279 163 122 q 179 437 163 348 l 277 998 m 429 1240 q 450 1242 436 1241 q 484 1244 465 1243 q 523 1246 503 1245 q 561 1247 543 1247 q 624 1245 593 1247 q 672 1240 655 1243 l 794 1079 q 756 1073 783 1076 q 701 1070 729 1070 q 650 1072 673 1070 q 612 1076 626 1073 l 429 1240 "},"€":{"x_min":89.984375,"x_max":965.359375,"ha":833,"o":"m 90 309 q 111 426 87 369 l 216 426 q 222 483 219 455 q 230 538 225 511 l 131 538 q 134 596 129 565 q 151 655 140 627 l 263 655 q 338 795 293 732 q 445 903 384 858 q 580 972 505 948 q 744 997 655 997 q 865 986 809 997 q 965 952 920 976 q 943 874 957 909 q 907 794 930 838 q 822 818 859 812 q 748 823 786 823 q 584 777 647 823 q 484 655 520 730 l 770 655 q 768 596 775 626 q 751 538 761 566 l 447 538 q 434 426 437 484 l 730 426 q 727 366 734 400 q 709 309 720 331 l 438 309 q 497 196 451 233 q 633 159 543 159 q 672 161 654 159 q 708 165 690 162 q 747 174 726 168 q 794 188 768 180 q 818 109 809 152 q 830 22 827 65 q 765 2 800 9 q 697 -9 730 -5 q 636 -15 665 -13 q 591 -16 608 -16 q 431 6 498 -16 q 318 72 363 29 q 248 175 273 115 q 218 309 223 236 l 90 309 "},"¢":{"x_min":208.34375,"x_max":800.0625,"ha":833,"o":"m 437 -11 q 263 80 319 6 q 208 272 208 154 q 231 425 208 348 q 300 566 255 501 q 413 675 345 630 q 568 730 480 719 l 594 882 q 657 890 625 890 q 715 882 686 890 l 688 730 q 800 705 748 723 q 787 628 798 669 q 752 550 776 587 q 691 569 722 562 q 622 576 661 576 q 529 549 569 576 q 463 480 490 522 q 424 388 437 438 q 411 290 411 337 q 450 177 411 213 q 548 141 488 141 q 609 147 579 141 q 683 170 638 152 q 708 111 698 145 q 718 19 718 76 q 556 -15 648 -11 l 531 -163 q 470 -172 500 -172 q 411 -163 440 -172 l 437 -11 "},"ß":{"x_min":-161.125,"x_max":838.953125,"ha":839,"o":"m 229 718 q 274 866 244 805 q 347 963 304 926 q 447 1016 390 1000 q 577 1032 505 1032 q 700 1013 650 1032 q 781 964 750 994 q 825 896 812 934 q 838 819 838 858 q 812 711 838 755 q 753 631 786 666 q 694 565 720 595 q 668 500 668 534 q 692 443 668 468 q 745 391 716 419 q 799 323 775 362 q 823 225 823 284 q 802 122 823 166 q 742 46 780 77 q 651 0 704 15 q 536 -16 598 -16 q 368 13 437 -16 q 395 89 379 51 q 433 163 411 127 q 487 141 459 147 q 543 136 515 136 q 606 156 577 136 q 636 218 636 177 q 611 275 636 252 q 556 322 586 298 q 501 378 526 347 q 476 461 476 409 q 504 555 476 513 q 566 634 531 597 q 627 709 600 672 q 655 791 655 747 q 627 851 655 829 q 554 873 598 873 q 472 843 502 873 q 426 726 441 813 l 295 6 q 246 -161 277 -94 q 173 -267 215 -227 q 79 -322 131 -306 q -34 -338 26 -338 q -161 -319 -98 -338 q -115 -169 -154 -236 q -81 -178 -100 -175 q -51 -181 -62 -181 q -1 -174 -25 -181 q 42 -143 22 -166 q 78 -80 62 -120 q 105 25 94 -40 l 229 718 "},"é":{"x_min":106.953125,"x_max":761.328125,"ha":707,"o":"m 300 272 q 344 172 308 205 q 450 140 380 140 q 547 152 505 140 q 637 183 590 163 q 667 115 659 155 q 675 31 675 76 q 620 11 651 20 q 555 -3 588 2 q 488 -13 522 -9 q 429 -16 455 -16 q 284 4 344 -16 q 184 63 223 25 q 125 156 144 101 q 106 277 106 211 q 136 444 106 362 q 218 591 165 526 q 349 695 272 655 q 522 734 426 734 q 607 723 568 734 q 676 689 647 712 q 722 633 705 666 q 738 555 738 600 q 709 447 738 493 q 631 369 680 401 q 521 317 583 337 q 393 287 459 297 l 300 272 m 379 413 q 465 435 431 422 q 518 464 498 448 q 544 497 537 480 q 551 530 551 513 q 534 573 551 556 q 487 590 516 590 q 421 574 451 590 q 369 531 391 558 q 331 471 347 505 q 306 402 315 437 l 379 413 m 521 998 q 646 1007 576 1007 q 707 1004 682 1007 q 761 998 733 1002 l 565 827 q 522 822 547 825 q 469 819 497 819 q 379 827 425 819 l 521 998 "},"s":{"x_min":56.953125,"x_max":663.9375,"ha":618,"o":"m 288 316 q 244 338 266 325 q 203 371 222 351 q 172 420 184 391 q 161 490 161 450 q 184 593 161 548 q 247 670 206 638 q 343 718 288 701 q 462 734 398 734 q 511 732 484 734 q 564 726 537 730 q 617 714 591 722 q 663 695 643 707 q 650 624 661 659 q 616 552 640 588 q 545 577 587 568 q 466 587 504 587 q 432 584 451 587 q 397 575 413 581 q 369 554 380 568 q 358 519 358 540 q 411 454 358 477 l 465 430 q 516 404 491 419 q 561 369 541 390 q 592 320 580 348 q 604 255 604 293 q 576 135 604 186 q 501 50 548 84 q 389 0 454 16 q 252 -16 325 -16 q 154 -7 208 -16 q 56 19 100 1 q 98 169 61 100 q 186 142 141 150 q 273 134 231 134 q 318 138 294 134 q 361 152 341 143 q 393 179 380 162 q 406 222 406 197 q 387 267 406 250 q 333 298 368 284 l 288 316 "},"B":{"x_min":109.734375,"x_max":845.90625,"ha":811,"o":"m 284 998 q 380 1010 327 1005 q 493 1015 433 1015 q 629 1004 565 1015 q 742 968 694 994 q 818 897 790 941 q 845 786 845 852 q 828 697 845 740 q 783 620 811 654 q 720 563 755 586 q 651 533 686 540 q 777 459 733 518 q 822 326 822 400 q 785 166 822 231 q 684 61 748 101 q 530 2 619 20 q 338 -16 441 -16 q 237 -13 290 -16 q 109 0 184 -9 l 284 998 m 337 152 q 369 148 354 150 q 400 147 384 147 q 471 154 433 147 q 542 181 509 161 q 596 236 575 201 q 618 329 618 272 q 577 416 618 391 q 465 441 536 441 l 388 441 l 337 152 m 479 594 q 540 604 509 594 q 593 636 570 615 q 631 689 616 657 q 645 766 645 722 q 633 816 645 797 q 601 846 620 836 q 558 860 581 857 q 512 863 534 863 q 462 859 484 863 l 415 594 l 479 594 "},"?":{"x_min":187.515625,"x_max":727.84375,"ha":657,"o":"m 298 552 q 369 572 330 558 q 441 610 408 586 q 497 669 475 634 q 520 751 520 704 q 485 823 520 798 q 391 848 450 848 q 315 841 350 848 q 229 816 280 834 q 200 891 211 852 q 187 973 190 930 q 316 1007 254 1000 q 427 1015 379 1015 q 649 955 570 1015 q 727 780 727 895 q 707 670 727 723 q 651 573 687 618 q 566 495 615 529 q 461 440 518 461 l 438 313 q 345 305 390 305 q 300 306 323 305 q 256 313 277 308 l 298 552 m 225 202 q 277 210 252 208 q 327 212 302 212 q 377 210 351 212 q 427 202 402 208 q 418 100 427 148 q 393 0 409 51 q 340 -7 365 -5 q 290 -9 315 -9 q 240 -7 266 -9 q 190 0 215 -5 q 199 102 190 54 q 225 202 208 151 "},"H":{"x_min":109.734375,"x_max":994.53125,"ha":926,"o":"m 284 997 q 387 1007 337 1007 q 436 1004 411 1007 q 488 997 462 1002 l 420 607 l 722 607 l 790 997 q 843 1004 818 1002 q 893 1007 869 1007 q 943 1004 916 1007 q 994 997 969 1002 l 819 0 q 715 -8 765 -8 q 615 0 665 -8 l 690 431 l 388 431 l 313 0 q 209 -8 256 -8 q 109 0 159 -8 l 284 997 "},"₆":{"x_min":121.015625,"x_max":589.109375,"ha":625,"o":"m 287 312 q 440 375 362 375 q 546 335 502 375 q 589 219 589 294 q 567 121 589 165 q 509 46 546 76 q 427 -1 473 15 q 330 -17 380 -17 q 173 41 225 -17 q 121 191 121 100 q 151 344 121 275 q 237 464 182 412 q 368 546 293 515 q 536 583 444 576 q 547 514 547 546 q 539 460 547 486 q 470 450 505 458 q 401 425 434 443 q 339 381 368 408 q 287 312 309 354 m 347 103 q 408 133 384 103 q 432 203 432 164 q 415 253 432 239 q 369 268 398 268 q 310 240 337 268 q 283 172 283 212 q 299 121 283 140 q 347 103 315 103 "},"î":{"x_min":95.578125,"x_max":585.890625,"ha":433,"o":"m 234 568 l 147 568 q 146 576 147 572 q 145 586 145 580 q 152 653 145 622 q 173 718 159 684 l 454 718 l 327 0 q 227 -8 275 -8 q 134 0 184 -8 l 234 568 m 262 998 q 317 1003 285 1001 q 378 1005 349 1005 q 425 1004 396 1005 q 480 997 453 1002 l 585 826 q 499 818 552 818 q 449 820 476 818 q 401 827 423 822 l 359 916 l 288 827 q 241 820 269 822 q 188 818 213 818 q 95 826 133 818 l 262 998 "},"c":{"x_min":106.953125,"x_max":698.671875,"ha":639,"o":"m 581 170 q 606 111 597 145 q 616 19 616 76 q 522 -8 572 0 q 412 -16 472 -16 q 180 60 254 -16 q 106 272 106 137 q 134 436 106 354 q 213 585 161 519 q 343 693 266 651 q 522 734 420 734 q 613 727 569 734 q 698 705 658 720 q 686 628 697 669 q 651 550 675 587 q 591 569 620 562 q 525 576 561 576 q 430 552 470 576 q 363 488 390 527 q 322 397 336 448 q 309 290 309 345 q 348 177 309 213 q 447 141 387 141 q 507 147 477 141 q 581 170 537 152 "},"¶":{"x_min":187.515625,"x_max":913.96875,"ha":856,"o":"m 447 434 q 348 452 395 438 q 265 494 301 466 q 209 564 230 522 q 187 669 187 607 q 229 834 187 769 q 340 938 270 900 q 498 993 409 977 q 683 1007 587 1008 l 512 -6 q 472 -6 493 -6 q 431 -4 451 -5 q 397 0 412 -2 q 375 4 381 1 l 447 434 m 775 1007 q 858 1004 818 1007 q 913 997 898 1002 l 747 1 q 688 -6 729 -4 q 604 -8 648 -8 l 775 1007 "},"¥":{"x_min":110.265625,"x_max":955.625,"ha":833,"o":"m 341 216 l 111 216 q 114 277 108 244 q 131 334 120 309 l 362 334 l 379 431 l 148 431 q 169 550 148 495 l 330 550 l 191 982 q 309 990 251 990 q 356 988 336 990 q 402 982 377 986 l 505 601 l 743 982 q 800 988 770 986 q 857 990 830 990 q 905 988 883 990 q 955 982 927 986 l 673 550 l 855 550 q 852 488 859 523 q 834 431 845 454 l 580 431 l 563 334 l 818 334 q 797 216 818 276 l 543 216 l 504 -1 q 451 -6 476 -5 q 401 -8 426 -8 q 353 -6 377 -8 q 302 -1 329 -5 l 341 216 "},"(":{"x_min":166.6875,"x_max":658.390625,"ha":513,"o":"m 234 -230 q 209 -152 222 -197 q 187 -52 197 -106 q 172 61 177 1 q 166 186 166 122 q 193 488 166 351 q 263 734 220 625 q 358 929 306 844 q 459 1076 409 1013 q 497 1083 475 1080 q 552 1086 520 1086 q 609 1084 580 1086 q 658 1076 638 1082 q 441 655 515 877 q 368 188 368 433 q 374 43 368 111 q 390 -79 380 -25 q 410 -172 400 -133 q 427 -230 420 -211 q 377 -238 405 -236 q 322 -240 350 -240 q 271 -237 294 -240 q 234 -230 248 -234 "},"U":{"x_min":163.90625,"x_max":1000.078125,"ha":928,"o":"m 277 998 q 331 1005 305 1004 q 381 1007 356 1007 q 429 1005 405 1007 q 480 998 454 1004 l 390 480 q 375 379 380 423 q 369 298 369 334 q 395 192 369 226 q 488 158 422 158 q 575 177 540 158 q 634 235 609 195 q 674 335 658 275 q 705 480 690 395 l 795 998 q 850 1005 826 1004 q 898 1007 875 1007 q 948 1005 923 1007 q 1000 998 973 1004 l 901 437 q 852 241 882 326 q 773 100 823 156 q 647 13 723 43 q 462 -16 572 -16 q 237 52 311 -16 q 163 279 163 122 q 179 437 163 348 l 277 998 "},"◊":{"x_min":138.90625,"x_max":819.515625,"ha":775,"o":"m 627 500 l 537 830 l 334 500 l 427 169 l 627 500 m 138 500 l 459 1000 q 515 1005 486 1004 q 563 1007 544 1007 q 610 1005 583 1007 q 659 998 637 1004 l 819 500 l 500 0 q 441 -5 473 -4 q 390 -6 409 -6 q 345 -5 370 -6 q 298 1 320 -4 l 138 500 "},"Ñ":{"x_min":109.734375,"x_max":993.140625,"ha":925,"o":"m 284 998 q 329 1005 308 1004 q 370 1007 351 1007 q 454 998 412 1007 l 700 363 l 809 998 q 908 1007 859 1007 q 951 1005 930 1007 q 993 998 972 1004 l 816 0 q 732 -8 768 -8 q 650 0 693 -8 l 402 633 l 293 0 q 245 -6 269 -4 q 197 -8 220 -8 q 109 0 152 -8 l 284 998 m 419 1180 q 491 1234 447 1211 q 587 1258 536 1258 q 636 1250 613 1258 q 681 1234 659 1243 q 727 1217 704 1225 q 777 1209 751 1209 q 822 1216 801 1209 q 876 1248 844 1222 q 907 1200 893 1229 q 925 1145 922 1172 q 851 1093 895 1115 q 755 1070 806 1070 q 705 1078 729 1070 q 659 1095 681 1086 q 613 1111 636 1104 q 565 1119 590 1119 q 519 1111 538 1119 q 468 1080 499 1104 q 437 1125 452 1097 q 419 1180 422 1154 "},"F":{"x_min":109.734375,"x_max":833.40625,"ha":704,"o":"m 284 998 l 832 998 q 832 987 832 993 q 833 976 833 982 q 825 902 833 940 q 801 826 816 865 l 456 826 l 416 591 l 690 591 q 682 505 690 547 q 659 418 675 463 l 386 418 l 312 0 q 209 -8 255 -8 q 109 0 159 -8 l 284 998 "},"­":{"x_min":140.28125,"x_max":516.90625,"ha":508,"o":"m 516 493 q 509 406 518 450 q 487 322 501 362 l 140 322 q 147 405 140 363 q 169 493 155 447 l 516 493 "},"⁹":{"x_min":188.90625,"x_max":657,"ha":625,"o":"m 241 404 q 230 473 230 441 q 238 527 230 500 q 307 536 272 529 q 376 561 343 544 q 438 606 409 579 q 490 675 468 633 q 337 612 415 612 q 231 652 275 612 q 188 768 188 693 q 210 866 188 822 q 268 941 231 911 q 350 988 304 972 q 447 1005 397 1005 q 604 946 552 1005 q 657 795 657 887 q 626 643 657 712 q 540 523 595 575 q 409 441 484 472 q 241 404 333 411 m 408 723 q 467 751 440 723 q 494 819 494 779 q 478 870 494 851 q 430 888 462 888 q 369 858 393 888 q 345 788 345 827 q 362 738 345 752 q 408 723 379 723 "},":":{"x_min":98.625,"x_max":426.140625,"ha":400,"o":"m 133 202 q 186 210 161 208 q 236 212 211 212 q 285 210 259 212 q 336 202 311 208 q 327 100 336 148 q 301 0 318 51 q 248 -7 273 -5 q 198 -9 223 -9 q 149 -7 175 -9 q 98 0 123 -5 q 107 102 98 54 q 133 202 116 151 m 223 716 q 276 724 251 722 q 326 726 301 726 q 375 724 349 726 q 426 716 401 722 q 417 614 426 662 q 391 514 408 565 q 338 506 363 508 q 288 504 313 504 q 239 506 265 504 q 188 514 213 508 q 197 616 188 568 q 223 716 206 665 "},"Û":{"x_min":163.90625,"x_max":1000.078125,"ha":928,"o":"m 277 998 q 331 1005 305 1004 q 381 1007 356 1007 q 429 1005 405 1007 q 480 998 454 1004 l 390 480 q 375 379 380 423 q 369 298 369 334 q 395 192 369 226 q 488 158 422 158 q 575 177 540 158 q 634 235 609 195 q 674 335 658 275 q 705 480 690 395 l 795 998 q 850 1005 826 1004 q 898 1007 875 1007 q 948 1005 923 1007 q 1000 998 973 1004 l 901 437 q 852 241 882 326 q 773 100 823 156 q 647 13 723 43 q 462 -16 572 -16 q 237 52 311 -16 q 163 279 163 122 q 179 437 163 348 l 277 998 m 589 1236 q 645 1241 613 1238 q 706 1243 677 1243 q 753 1241 724 1243 q 807 1234 781 1240 l 913 1084 q 827 1076 880 1076 q 776 1078 803 1076 q 727 1086 749 1080 l 685 1154 l 614 1086 q 568 1078 595 1080 q 516 1076 541 1076 q 423 1084 460 1076 l 589 1236 "},"*":{"x_min":173.625,"x_max":769.5,"ha":686,"o":"m 462 997 q 490 1001 476 1000 q 516 1002 504 1002 q 572 997 545 1002 l 554 808 q 515 804 533 805 q 479 802 497 802 q 446 804 462 802 q 413 808 430 805 l 462 997 m 173 747 q 191 796 180 772 q 218 840 202 820 l 398 794 q 371 731 387 761 q 334 670 355 701 l 173 747 m 459 566 q 516 609 488 591 q 575 643 543 627 l 644 473 q 603 441 623 454 q 555 415 583 429 l 459 566 m 752 838 q 764 793 759 816 q 769 737 769 769 l 584 661 q 566 723 569 688 q 566 793 563 758 l 752 838 m 337 647 q 386 609 358 633 q 436 561 415 586 l 294 418 q 252 448 275 429 q 216 487 230 468 l 337 647 "},"°":{"x_min":152.796875,"x_max":572.265625,"ha":524,"o":"m 152 798 q 169 880 152 841 q 213 947 186 919 q 279 991 241 975 q 361 1008 318 1008 q 443 991 404 1008 q 510 947 481 975 q 555 880 538 919 q 572 798 572 841 q 555 718 572 755 q 510 652 538 680 q 443 607 481 623 q 361 591 404 591 q 279 607 318 591 q 213 652 241 623 q 169 718 186 680 q 152 798 152 755 m 361 708 q 423 733 397 708 q 450 798 450 758 q 423 865 450 838 q 361 891 397 891 q 300 865 325 891 q 275 798 275 838 q 300 733 275 758 q 361 708 325 708 "},"V":{"x_min":184.734375,"x_max":1018.140625,"ha":858,"o":"m 184 998 q 297 1007 240 1007 q 398 998 345 1007 l 462 213 l 805 998 q 911 1007 855 1007 q 1018 998 965 1007 l 544 0 q 422 -8 481 -8 q 368 -6 394 -8 q 309 0 341 -4 l 184 998 "},"å":{"x_min":100.015625,"x_max":809.78125,"ha":790,"o":"m 598 569 q 574 572 586 572 q 551 573 562 573 q 438 540 484 573 q 361 456 391 506 q 316 349 330 406 q 302 244 302 291 q 370 141 302 141 q 494 222 437 141 q 577 451 551 304 l 598 569 m 741 311 q 719 156 726 223 q 712 51 712 88 q 712 25 712 36 q 713 2 712 15 q 623 -5 668 -5 q 537 2 584 -5 q 531 29 534 13 q 529 75 529 44 q 529 101 529 87 q 531 133 529 115 q 429 26 491 69 q 283 -16 366 -16 q 145 41 191 -16 q 100 195 100 100 q 131 397 100 300 q 224 569 162 494 q 377 689 286 644 q 591 734 469 734 q 705 726 652 734 q 809 702 758 718 l 741 311 m 463 948 q 475 1013 463 982 q 507 1068 486 1044 q 561 1108 529 1093 q 634 1123 593 1123 q 736 1087 695 1123 q 777 973 777 1051 q 765 907 777 937 q 730 854 752 877 q 676 819 708 832 q 606 807 644 807 q 503 843 543 807 q 463 948 463 879 m 615 890 q 663 912 644 890 q 683 975 683 934 q 626 1040 683 1040 q 576 1013 593 1040 q 559 955 559 987 q 615 890 559 890 "}," ":{"x_min":0,"x_max":0,"ha":290},"0":{"x_min":116.671875,"x_max":869.515625,"ha":833,"o":"m 419 -16 q 190 73 263 -16 q 116 320 116 163 q 127 451 116 383 q 163 586 138 519 q 223 713 187 652 q 309 819 259 773 q 422 892 359 865 q 565 919 486 919 q 700 895 643 919 q 795 827 758 872 q 851 720 833 783 q 869 577 869 657 q 857 446 869 515 q 822 311 845 377 q 761 186 798 245 q 675 81 725 126 q 561 9 625 36 q 419 -16 497 -16 m 434 150 q 509 172 476 150 q 568 230 543 194 q 611 313 593 266 q 641 408 630 359 q 658 503 652 456 q 663 587 663 550 q 550 750 663 750 q 442 703 486 750 q 370 588 398 657 q 330 445 343 520 q 318 313 318 370 q 347 190 318 230 q 434 150 377 150 "},"¾":{"x_min":163.90625,"x_max":1376.46875,"ha":1458,"o":"m 301 691 l 454 857 l 265 857 q 270 919 265 888 q 286 982 275 950 l 652 982 l 662 954 l 501 761 q 589 714 559 751 q 619 623 619 677 q 597 533 619 573 q 538 465 576 493 q 452 422 501 437 q 347 408 402 408 q 244 418 288 408 q 163 443 200 427 q 184 504 169 475 q 219 556 200 534 q 283 536 255 544 q 347 529 311 529 q 388 534 368 529 q 426 549 409 538 q 452 575 443 559 q 462 611 462 590 q 439 657 462 643 q 386 670 416 670 q 363 669 377 670 q 325 661 348 668 l 301 691 m 1047 984 q 1144 993 1094 993 q 1240 984 1187 993 l 568 2 q 475 -5 519 -5 q 376 2 428 -5 l 1047 984 m 870 128 l 1163 580 q 1233 562 1198 576 q 1291 528 1267 547 l 1078 214 l 1184 214 l 1203 322 q 1232 325 1219 325 q 1267 326 1245 326 q 1337 322 1308 326 l 1319 214 l 1376 214 q 1372 158 1377 186 q 1358 103 1367 130 l 1301 103 l 1284 1 q 1251 -2 1266 -1 q 1216 -3 1237 -3 q 1149 1 1176 -3 l 1166 103 l 880 103 l 870 128 "},"@":{"x_min":143.0625,"x_max":1419.5625,"ha":1413,"o":"m 995 220 q 1041 209 1009 209 q 1133 240 1093 209 q 1200 319 1173 270 q 1241 427 1227 368 q 1255 543 1255 486 q 1158 787 1255 702 q 884 872 1061 872 q 642 825 748 872 q 463 700 536 779 q 352 520 390 622 q 313 308 313 418 q 343 137 313 208 q 425 21 373 66 q 545 -44 476 -23 q 691 -65 613 -65 q 825 -56 763 -65 q 936 -27 886 -47 q 959 -90 948 -58 q 979 -155 970 -123 q 919 -178 954 -168 q 844 -195 884 -188 q 759 -204 804 -201 q 669 -208 713 -208 q 466 -177 562 -208 q 298 -84 370 -147 q 184 75 226 -20 q 143 302 143 170 q 188 552 143 426 q 326 781 233 679 q 563 947 419 883 q 904 1012 707 1012 q 1103 984 1009 1012 q 1267 897 1197 955 q 1378 750 1337 838 q 1419 543 1419 662 q 1391 372 1419 456 q 1311 222 1362 288 q 1186 113 1259 155 q 1025 70 1113 72 q 870 123 923 70 q 783 86 829 102 q 668 70 737 70 q 584 84 623 70 q 516 125 545 97 q 470 197 487 154 q 452 300 452 240 q 484 472 452 394 q 569 608 515 551 q 695 697 623 665 q 848 729 766 729 q 971 720 911 729 q 1084 691 1032 711 l 995 220 m 887 573 q 859 579 872 577 q 830 580 845 580 q 749 559 784 580 q 688 504 713 538 q 650 425 663 470 q 637 331 637 380 q 664 241 637 269 q 736 213 691 213 q 784 218 763 213 q 827 229 804 222 l 887 573 "},"ö":{"x_min":108.34375,"x_max":808.34375,"ha":775,"o":"m 386 -16 q 175 58 243 -16 q 108 263 108 133 q 133 431 108 347 q 208 582 158 515 q 334 692 258 650 q 511 734 409 734 q 722 658 655 734 q 790 451 790 581 q 766 281 790 365 q 691 131 741 198 q 565 24 641 65 q 386 -16 488 -16 m 404 133 q 493 166 456 133 q 552 249 529 200 q 584 353 575 298 q 594 452 594 408 q 490 580 594 580 q 402 545 437 580 q 345 461 368 511 q 314 355 323 411 q 305 256 305 300 q 404 133 305 133 m 293 823 q 300 907 294 866 q 322 987 306 947 q 368 993 344 991 q 412 995 393 995 q 456 993 431 995 q 501 987 480 991 q 493 904 499 944 q 472 823 487 863 q 424 818 448 819 q 380 816 401 816 q 337 818 362 816 q 293 823 312 819 m 599 823 q 605 907 598 866 q 629 987 612 947 q 675 993 651 991 q 719 995 700 995 q 763 993 738 995 q 808 987 787 991 q 799 905 805 945 q 779 823 793 865 q 731 818 755 819 q 687 816 706 816 q 643 818 668 816 q 599 823 619 819 "},"i":{"x_min":134.734375,"x_max":508.375,"ha":433,"o":"m 234 568 l 147 568 q 146 576 147 572 q 145 586 145 580 q 152 653 145 622 q 173 718 159 684 l 454 718 l 327 0 q 227 -8 275 -8 q 134 0 184 -8 l 234 568 m 275 838 q 281 931 273 887 q 305 1023 288 975 q 358 1031 330 1029 q 408 1033 386 1033 q 457 1031 430 1033 q 508 1023 484 1029 q 500 930 508 975 q 475 838 491 886 q 422 833 450 834 q 373 832 395 832 q 325 833 352 832 q 275 838 297 834 "},"⁶":{"x_min":175.015625,"x_max":643.109375,"ha":625,"o":"m 341 734 q 494 797 416 797 q 600 757 556 797 q 643 641 643 716 q 621 543 643 587 q 563 468 600 498 q 481 420 527 437 q 384 404 434 404 q 227 463 279 404 q 175 613 175 522 q 205 766 175 697 q 291 886 236 834 q 422 968 347 937 q 590 1005 498 998 q 601 936 601 968 q 593 882 601 908 q 524 872 559 880 q 455 847 488 865 q 393 803 422 830 q 341 734 363 776 m 401 525 q 462 555 438 525 q 486 625 486 586 q 469 675 486 661 q 423 690 452 690 q 364 662 391 690 q 337 594 337 634 q 353 543 337 562 q 401 525 369 525 "},"Õ":{"x_min":138.90625,"x_max":998.6875,"ha":967,"o":"m 483 -16 q 222 81 306 -16 q 138 355 138 180 q 152 509 138 430 q 193 661 165 587 q 262 799 220 734 q 361 911 304 863 q 492 987 419 959 q 654 1015 565 1015 q 807 988 741 1015 q 914 913 872 962 q 977 795 957 865 q 998 636 998 725 q 985 482 998 561 q 944 331 972 404 q 874 195 916 259 q 775 84 832 131 q 645 10 718 37 q 483 -16 572 -16 m 501 152 q 597 177 555 152 q 671 240 640 201 q 725 332 702 280 q 760 439 747 384 q 779 548 773 494 q 786 647 786 602 q 636 841 786 841 q 539 817 581 841 q 465 753 497 793 q 411 661 433 713 q 375 554 388 609 q 356 445 362 500 q 350 345 350 391 q 501 152 350 152 m 447 1180 q 519 1234 475 1211 q 615 1258 564 1258 q 664 1250 641 1258 q 709 1234 687 1243 q 755 1217 732 1225 q 805 1209 779 1209 q 850 1216 829 1209 q 904 1248 872 1222 q 935 1200 921 1229 q 953 1145 950 1172 q 879 1093 923 1115 q 783 1070 834 1070 q 733 1078 757 1070 q 687 1095 709 1086 q 641 1111 664 1104 q 593 1119 618 1119 q 547 1111 566 1119 q 496 1080 527 1104 q 465 1125 480 1097 q 447 1180 450 1154 "},"þ":{"x_min":44.453125,"x_max":834.78125,"ha":817,"o":"m 326 154 q 354 148 337 150 q 390 147 372 147 q 495 175 451 147 q 567 247 538 204 q 609 344 595 291 q 622 447 622 397 q 602 531 622 495 q 533 566 581 566 q 423 512 469 566 q 356 333 377 458 l 326 154 m 226 705 q 250 860 241 793 q 258 965 258 927 q 258 991 258 980 q 256 1013 258 1001 q 347 1022 302 1022 q 397 1020 368 1022 q 451 1015 427 1019 q 456 988 454 1004 q 458 941 458 972 q 456 904 458 927 q 450 853 454 882 q 440 793 445 825 q 429 730 434 762 l 402 594 q 492 694 434 654 q 633 734 550 734 q 782 668 730 734 q 834 475 834 601 q 808 301 834 388 q 724 143 782 213 q 575 27 666 72 q 351 -16 483 -16 q 315 -15 327 -16 q 297 -12 304 -13 l 241 -327 q 188 -334 213 -333 q 141 -336 163 -336 q 94 -334 118 -336 q 44 -327 70 -333 l 226 705 "},"]":{"x_min":10.625,"x_max":565.328125,"ha":476,"o":"m 170 -75 l 345 919 l 213 919 q 241 1077 213 995 l 565 1077 l 334 -233 l 11 -233 q 38 -75 6 -155 l 170 -75 "},"m":{"x_min":101.390625,"x_max":1191.765625,"ha":1199,"o":"m 176 409 q 199 564 191 497 q 206 669 206 632 q 206 695 206 684 q 205 718 206 705 q 297 726 251 726 q 338 724 318 726 q 383 718 359 722 q 388 691 386 707 q 391 645 391 676 q 391 620 391 633 q 387 590 390 608 q 482 691 419 650 q 622 733 545 733 q 736 700 695 733 q 786 593 777 668 q 883 692 819 651 q 1022 733 947 733 q 1148 692 1105 733 q 1191 555 1191 651 q 1182 455 1191 508 l 1101 0 q 1000 -8 1048 -8 q 904 0 951 -8 l 982 440 q 987 500 987 472 q 972 552 987 537 q 925 568 957 568 q 882 558 905 568 q 836 520 859 548 q 791 444 812 493 q 757 318 770 395 l 701 0 q 600 -8 648 -8 q 504 0 551 -8 l 581 440 q 587 500 587 472 q 572 552 587 537 q 525 568 556 568 q 481 558 505 568 q 434 517 458 548 q 388 429 411 486 q 350 279 366 372 l 298 0 q 197 -8 244 -8 q 101 0 148 -8 l 176 409 "},"8":{"x_min":120.84375,"x_max":851.453125,"ha":833,"o":"m 337 531 q 275 601 302 556 q 248 705 248 645 q 276 821 248 768 q 350 913 304 875 q 459 975 397 952 q 587 997 520 997 q 778 941 705 997 q 851 782 851 884 q 807 638 851 701 q 687 526 763 575 q 773 443 738 491 q 808 312 808 394 q 776 175 808 236 q 691 71 744 113 q 567 6 637 29 q 420 -16 497 -16 q 306 -4 361 -16 q 211 36 252 8 q 145 106 169 63 q 120 212 120 150 q 179 393 120 315 q 337 531 238 470 m 477 454 q 423 420 450 440 q 376 374 397 400 q 342 317 355 348 q 329 248 329 286 q 358 172 329 200 q 443 145 387 145 q 505 156 476 145 q 556 188 534 168 q 591 238 577 208 q 604 305 604 268 q 593 354 604 331 q 565 394 583 376 q 525 427 547 412 q 477 454 502 441 m 543 593 q 588 622 566 607 q 626 658 609 638 q 652 702 643 677 q 662 755 662 726 q 639 817 662 793 q 573 841 616 841 q 477 807 515 841 q 438 716 438 772 q 449 672 438 693 q 475 637 459 652 q 509 611 491 622 q 543 593 527 600 "},"⁵":{"x_min":156.953125,"x_max":638.9375,"ha":625,"o":"m 248 677 l 313 979 l 638 979 q 618 855 638 913 l 409 855 l 390 775 q 452 783 419 783 q 513 775 483 783 q 566 748 543 766 q 602 701 588 730 q 616 632 616 672 q 593 529 616 572 q 533 460 570 487 q 447 420 495 433 q 347 406 398 406 q 238 418 290 406 q 156 445 186 429 q 173 502 163 475 q 211 563 183 530 q 274 541 241 550 q 343 531 306 531 q 425 553 395 531 q 454 613 454 575 q 434 659 454 643 q 369 676 415 676 q 321 672 345 676 q 268 655 297 668 l 248 677 "},"R":{"x_min":109.734375,"x_max":866.734375,"ha":818,"o":"m 284 997 q 392 1011 343 1008 q 493 1015 441 1015 q 630 1003 563 1015 q 750 961 697 991 q 834 879 802 932 q 866 748 866 827 q 847 633 866 684 q 800 541 829 581 q 738 471 772 500 q 675 425 705 443 l 658 415 l 807 0 q 694 -8 748 -8 q 593 0 640 -8 l 438 463 l 462 477 q 516 507 483 490 q 581 553 550 525 q 636 622 613 581 q 659 719 659 662 q 647 779 659 755 q 613 819 634 804 q 563 841 591 834 q 506 847 536 847 q 459 843 477 847 l 311 0 q 259 -4 283 -2 q 211 -6 234 -6 q 162 -5 188 -6 q 109 0 136 -4 l 284 997 "},"á":{"x_min":100.015625,"x_max":837.328125,"ha":790,"o":"m 598 569 q 574 572 586 572 q 551 573 562 573 q 438 540 484 573 q 361 456 391 506 q 316 349 330 406 q 302 244 302 291 q 370 141 302 141 q 494 222 437 141 q 577 451 551 304 l 598 569 m 741 311 q 719 156 726 223 q 712 51 712 88 q 712 25 712 36 q 713 2 712 15 q 623 -5 668 -5 q 537 2 584 -5 q 531 29 534 13 q 529 75 529 44 q 529 101 529 87 q 531 133 529 115 q 429 26 491 69 q 283 -16 366 -16 q 145 41 191 -16 q 100 195 100 100 q 131 397 100 300 q 224 569 162 494 q 377 689 286 644 q 591 734 469 734 q 705 726 652 734 q 809 702 758 718 l 741 311 m 597 998 q 722 1007 652 1007 q 783 1004 758 1007 q 837 998 809 1002 l 641 827 q 598 822 623 825 q 545 819 573 819 q 455 827 501 819 l 597 998 "},"×":{"x_min":195.84375,"x_max":807.015625,"ha":833,"o":"m 379 483 l 255 634 q 286 668 270 652 q 319 700 301 684 q 395 754 358 732 l 519 602 l 698 755 q 754 702 730 732 q 782 665 768 687 q 807 625 797 643 l 626 470 l 747 326 q 716 293 732 308 q 683 262 701 277 q 645 233 663 247 q 608 208 627 219 l 487 352 l 304 197 q 270 227 288 208 q 237 262 251 247 q 215 294 225 277 q 195 329 205 311 l 379 483 "},"o":{"x_min":108.34375,"x_max":790.34375,"ha":775,"o":"m 386 -16 q 175 58 243 -16 q 108 263 108 133 q 133 431 108 347 q 208 582 158 515 q 334 692 258 650 q 511 734 409 734 q 722 658 655 734 q 790 451 790 581 q 766 281 790 365 q 691 131 741 198 q 565 24 641 65 q 386 -16 488 -16 m 404 133 q 493 166 456 133 q 552 249 529 200 q 584 353 575 298 q 594 452 594 408 q 490 580 594 580 q 402 545 437 580 q 345 461 368 511 q 314 355 323 411 q 305 256 305 300 q 404 133 305 133 "},"5":{"x_min":72.234375,"x_max":808.390625,"ha":833,"o":"m 323 905 l 808 905 q 800 822 808 863 q 779 736 793 782 l 475 736 l 430 530 q 469 536 454 534 q 508 538 484 538 q 609 520 563 538 q 688 470 655 502 q 741 393 722 437 q 759 297 759 348 q 723 136 759 208 q 624 13 687 63 q 477 -65 561 -37 q 297 -93 393 -93 q 191 -83 251 -93 q 72 -50 131 -73 q 90 33 79 -9 q 120 118 101 76 q 213 89 169 100 q 308 79 258 79 q 391 89 348 79 q 467 122 433 100 q 522 180 501 145 q 544 263 544 215 q 504 353 544 322 q 387 384 463 384 q 311 375 347 384 q 230 347 275 366 l 209 368 l 323 905 "},"õ":{"x_min":108.34375,"x_max":790.34375,"ha":775,"o":"m 386 -16 q 175 58 243 -16 q 108 263 108 133 q 133 431 108 347 q 208 582 158 515 q 334 692 258 650 q 511 734 409 734 q 722 658 655 734 q 790 451 790 581 q 766 281 790 365 q 691 131 741 198 q 565 24 641 65 q 386 -16 488 -16 m 404 133 q 493 166 456 133 q 552 249 529 200 q 584 353 575 298 q 594 452 594 408 q 490 580 594 580 q 402 545 437 580 q 345 461 368 511 q 314 355 323 411 q 305 256 305 300 q 404 133 305 133 m 280 929 q 352 983 308 959 q 448 1007 396 1007 q 497 999 474 1007 q 542 982 520 991 q 588 966 565 973 q 638 958 612 958 q 683 964 662 958 q 737 997 705 970 q 768 949 753 977 q 785 894 783 920 q 712 841 756 863 q 616 819 667 819 q 566 827 590 819 q 519 843 542 834 q 474 860 496 852 q 426 868 451 868 q 380 860 399 868 q 328 829 360 852 q 298 874 313 845 q 280 929 283 902 "},"7":{"x_min":169.453125,"x_max":912.578125,"ha":833,"o":"m 604 736 l 218 736 q 225 821 218 775 q 247 905 231 868 l 908 905 l 912 888 l 350 -104 q 295 -88 318 -95 q 251 -70 272 -80 q 209 -47 230 -61 q 169 -19 187 -34 l 604 736 "},"K":{"x_min":109.734375,"x_max":987.578125,"ha":835,"o":"m 419 502 l 763 998 q 825 1006 798 1005 q 872 1007 851 1007 q 927 1004 895 1007 q 987 998 959 1002 l 632 502 l 822 0 q 762 -6 790 -5 q 715 -8 734 -8 q 666 -6 693 -8 q 608 0 640 -5 l 419 502 m 286 998 q 338 1005 313 1004 q 390 1007 363 1007 q 437 1005 413 1007 q 488 998 461 1004 l 312 0 q 209 -8 258 -8 q 161 -6 184 -8 q 109 0 137 -4 l 286 998 "},"⁰":{"x_min":155.5625,"x_max":683.390625,"ha":625,"o":"m 391 540 q 449 563 426 540 q 486 621 472 587 q 507 693 501 655 q 513 762 513 732 q 497 838 513 811 q 445 865 481 865 q 387 841 411 865 q 350 781 363 816 q 330 707 336 745 q 325 638 325 668 q 341 566 325 593 q 391 540 358 540 m 373 408 q 273 426 315 408 q 206 475 231 444 q 168 547 180 505 q 155 634 155 588 q 175 769 155 704 q 234 886 195 834 q 331 968 273 937 q 468 998 390 998 q 566 980 525 998 q 632 931 607 962 q 670 858 658 900 q 683 769 683 816 q 661 629 683 694 q 598 514 638 563 q 501 436 558 465 q 373 408 444 408 "},",":{"x_min":25,"x_max":366.703125,"ha":403,"o":"m 175 198 q 222 207 198 205 q 269 209 247 209 q 318 207 291 209 q 366 198 344 205 l 208 -155 q 159 -162 183 -161 q 113 -163 136 -163 q 70 -162 91 -163 q 25 -155 48 -161 l 175 198 "},"d":{"x_min":100.015625,"x_max":854.234375,"ha":796,"o":"m 598 569 q 574 572 586 572 q 551 573 562 573 q 438 540 484 573 q 361 456 391 506 q 316 349 330 406 q 302 244 302 291 q 370 141 302 141 q 494 222 437 141 q 577 451 551 304 l 598 569 m 747 311 q 725 156 732 223 q 718 51 718 88 q 718 25 718 36 q 719 2 718 15 q 629 -5 673 -5 q 543 2 590 -5 q 537 29 540 13 q 534 75 534 44 q 535 104 534 87 q 538 138 536 120 q 492 78 519 106 q 432 29 465 50 q 362 -4 400 8 q 283 -16 325 -16 q 145 41 191 -16 q 100 195 100 100 q 131 397 100 300 q 224 569 162 494 q 377 689 286 644 q 591 734 469 734 q 610 734 601 734 q 626 733 619 733 q 647 872 641 815 q 654 966 654 929 q 653 992 654 982 q 651 1015 652 1002 q 705 1021 675 1019 q 758 1023 736 1023 q 847 1015 798 1023 q 854 962 854 994 q 837 813 854 901 l 747 311 "},"¨":{"x_min":225.015625,"x_max":740.34375,"ha":695,"o":"m 225 823 q 232 907 226 866 q 254 987 238 947 q 300 993 276 991 q 344 995 325 995 q 388 993 363 995 q 433 987 412 991 q 425 904 431 944 q 404 823 419 863 q 356 818 380 819 q 312 816 333 816 q 269 818 294 816 q 225 823 244 819 m 531 823 q 537 907 530 866 q 561 987 544 947 q 607 993 583 991 q 651 995 632 995 q 695 993 670 995 q 740 987 719 991 q 731 905 737 945 q 711 823 725 865 q 663 818 687 819 q 619 816 638 816 q 575 818 600 816 q 531 823 551 819 "},"Ô":{"x_min":138.90625,"x_max":998.6875,"ha":967,"o":"m 483 -16 q 222 81 306 -16 q 138 355 138 180 q 152 509 138 430 q 193 661 165 587 q 262 799 220 734 q 361 911 304 863 q 492 987 419 959 q 654 1015 565 1015 q 807 988 741 1015 q 914 913 872 962 q 977 795 957 865 q 998 636 998 725 q 985 482 998 561 q 944 331 972 404 q 874 195 916 259 q 775 84 832 131 q 645 10 718 37 q 483 -16 572 -16 m 501 152 q 597 177 555 152 q 671 240 640 201 q 725 332 702 280 q 760 439 747 384 q 779 548 773 494 q 786 647 786 602 q 636 841 786 841 q 539 817 581 841 q 465 753 497 793 q 411 661 433 713 q 375 554 388 609 q 356 445 362 500 q 350 345 350 391 q 501 152 350 152 m 606 1236 q 662 1241 630 1238 q 723 1243 694 1243 q 770 1241 741 1243 q 824 1234 798 1240 l 930 1084 q 844 1076 897 1076 q 793 1078 820 1076 q 744 1086 766 1080 l 702 1154 l 631 1086 q 585 1078 612 1080 q 533 1076 558 1076 q 440 1084 477 1076 l 606 1236 "},"E":{"x_min":109.734375,"x_max":833.40625,"ha":736,"o":"m 284 998 l 832 998 q 832 987 832 993 q 833 976 833 982 q 825 902 833 940 q 801 826 816 865 l 456 826 l 419 609 l 693 609 q 662 436 693 526 l 388 436 l 341 172 l 695 172 q 696 161 695 166 q 697 151 697 156 q 688 77 697 113 q 666 0 679 40 l 109 0 l 284 998 "},"Y":{"x_min":163.90625,"x_max":957.015625,"ha":782,"o":"m 345 356 l 163 998 q 276 1007 223 1007 q 326 1005 301 1007 q 377 998 351 1004 l 484 555 l 741 998 q 797 1004 769 1002 q 852 1005 825 1005 q 903 1004 876 1005 q 957 998 930 1002 l 550 356 l 487 0 q 432 -6 458 -5 q 381 -8 406 -8 q 334 -6 358 -8 q 283 0 309 -5 l 345 356 "},"\"":{"x_min":168.0625,"x_max":679.3125,"ha":593,"o":"m 236 997 q 281 1004 259 1002 q 326 1005 302 1005 q 370 1004 348 1005 q 415 997 391 1002 l 347 608 q 300 602 322 604 q 256 601 279 601 q 211 602 233 601 q 168 608 190 604 l 236 997 m 500 997 q 545 1004 523 1002 q 590 1005 566 1005 q 634 1004 612 1005 q 679 997 655 1002 l 611 608 q 564 602 586 604 q 520 601 543 601 q 475 602 497 601 q 432 608 454 604 l 500 997 "},"ê":{"x_min":106.953125,"x_max":752.890625,"ha":707,"o":"m 300 272 q 344 172 308 205 q 450 140 380 140 q 547 152 505 140 q 637 183 590 163 q 667 115 659 155 q 675 31 675 76 q 620 11 651 20 q 555 -3 588 2 q 488 -13 522 -9 q 429 -16 455 -16 q 284 4 344 -16 q 184 63 223 25 q 125 156 144 101 q 106 277 106 211 q 136 444 106 362 q 218 591 165 526 q 349 695 272 655 q 522 734 426 734 q 607 723 568 734 q 676 689 647 712 q 722 633 705 666 q 738 555 738 600 q 709 447 738 493 q 631 369 680 401 q 521 317 583 337 q 393 287 459 297 l 300 272 m 379 413 q 465 435 431 422 q 518 464 498 448 q 544 497 537 480 q 551 530 551 513 q 534 573 551 556 q 487 590 516 590 q 421 574 451 590 q 369 531 391 558 q 331 471 347 505 q 306 402 315 437 l 379 413 m 429 998 q 484 1003 452 1001 q 545 1005 516 1005 q 592 1004 563 1005 q 647 997 620 1002 l 752 826 q 666 818 719 818 q 616 820 643 818 q 568 827 590 822 l 526 916 l 455 827 q 408 820 436 822 q 355 818 380 818 q 262 826 300 818 l 429 998 "},"Ï":{"x_min":109.734375,"x_max":685.84375,"ha":421,"o":"m 284 997 q 387 1007 337 1007 q 436 1004 411 1007 q 488 997 462 1002 l 313 0 q 209 -8 256 -8 q 109 0 159 -8 l 284 997 m 170 1079 q 178 1162 171 1122 q 199 1243 184 1202 q 246 1249 221 1247 q 289 1251 270 1251 q 333 1249 309 1251 q 378 1243 358 1247 q 371 1159 377 1200 q 349 1079 364 1119 q 302 1073 326 1075 q 258 1072 278 1072 q 214 1073 239 1072 q 170 1079 189 1075 m 477 1079 q 483 1162 476 1122 q 506 1243 489 1202 q 553 1249 528 1247 q 596 1251 577 1251 q 640 1249 616 1251 q 685 1243 665 1247 q 676 1161 683 1201 q 656 1079 670 1120 q 608 1073 633 1075 q 565 1072 584 1072 q 521 1073 545 1072 q 477 1079 496 1075 "},"₂":{"x_min":91.515625,"x_max":577.65625,"ha":625,"o":"m 91 26 l 304 230 q 375 305 342 268 q 408 380 408 341 q 342 443 408 443 q 280 434 310 443 q 217 410 249 425 q 196 463 206 433 q 183 528 185 493 q 277 562 223 547 q 384 576 331 576 q 527 531 477 576 q 577 415 577 486 q 566 344 577 375 q 535 284 555 312 q 490 230 516 255 q 433 175 463 204 l 388 133 l 555 133 q 549 67 555 101 q 531 1 544 33 l 97 1 l 91 26 "},"Â":{"x_min":34.71875,"x_max":886.515625,"ha":879,"o":"m 501 998 q 560 1004 529 1002 q 619 1007 591 1007 q 733 998 676 1007 l 855 0 q 754 -8 802 -8 q 650 0 705 -8 l 632 201 l 327 201 l 238 0 q 134 -8 188 -8 q 34 0 81 -8 l 501 998 m 616 368 l 580 768 l 402 368 l 616 368 m 562 1236 q 618 1241 586 1238 q 679 1243 650 1243 q 726 1241 697 1243 q 780 1234 754 1240 l 886 1084 q 800 1076 853 1076 q 749 1078 776 1076 q 700 1086 722 1080 l 658 1154 l 587 1086 q 541 1078 568 1080 q 489 1076 514 1076 q 396 1084 433 1076 l 562 1236 "},"₄":{"x_min":84.5625,"x_max":590.46875,"ha":625,"o":"m 84 128 l 377 580 q 447 562 412 576 q 505 528 481 547 l 292 214 l 398 214 l 417 322 q 446 325 433 325 q 481 326 459 326 q 551 322 522 326 l 533 214 l 590 214 q 586 158 591 186 q 572 103 581 130 l 515 103 l 498 1 q 465 -2 480 -1 q 430 -3 451 -3 q 363 1 390 -3 l 380 103 l 94 103 l 84 128 "},"Í":{"x_min":109.734375,"x_max":656.890625,"ha":421,"o":"m 284 997 q 387 1007 337 1007 q 436 1004 411 1007 q 488 997 462 1002 l 313 0 q 209 -8 256 -8 q 109 0 159 -8 l 284 997 m 423 1227 q 471 1232 440 1230 q 534 1234 502 1234 q 606 1232 570 1234 q 656 1227 641 1230 l 459 1077 q 419 1073 445 1075 q 365 1072 392 1072 q 308 1074 337 1072 q 269 1079 280 1076 l 423 1227 "},"´":{"x_min":308.359375,"x_max":690.328125,"ha":695,"o":"m 450 998 q 575 1007 505 1007 q 636 1004 611 1007 q 690 998 662 1002 l 494 827 q 451 822 476 825 q 398 819 426 819 q 308 827 354 819 l 450 998 "},"ì":{"x_min":132.359375,"x_max":496.28125,"ha":433,"o":"m 234 568 l 147 568 q 146 576 147 572 q 145 586 145 580 q 152 653 145 622 q 173 718 159 684 l 454 718 l 327 0 q 227 -8 275 -8 q 134 0 184 -8 l 234 568 m 132 998 q 185 1004 160 1002 q 247 1007 211 1007 q 372 998 315 1007 l 496 827 q 405 819 450 819 q 353 822 378 819 q 310 827 328 825 l 132 998 "},"±":{"x_min":136.125,"x_max":818.828125,"ha":833,"o":"m 358 168 l 400 406 l 184 406 q 213 575 184 487 l 429 575 l 473 820 q 561 829 515 829 q 647 820 605 829 l 602 575 l 818 575 q 812 492 820 534 q 788 406 804 450 l 573 406 l 531 168 l 758 168 q 752 81 761 126 q 729 0 744 37 l 136 0 q 143 84 136 45 q 165 168 150 123 l 358 168 "},"Ú":{"x_min":163.90625,"x_max":1000.078125,"ha":928,"o":"m 277 998 q 331 1005 305 1004 q 381 1007 356 1007 q 429 1005 405 1007 q 480 998 454 1004 l 390 480 q 375 379 380 423 q 369 298 369 334 q 395 192 369 226 q 488 158 422 158 q 575 177 540 158 q 634 235 609 195 q 674 335 658 275 q 705 480 690 395 l 795 998 q 850 1005 826 1004 q 898 1007 875 1007 q 948 1005 923 1007 q 1000 998 973 1004 l 901 437 q 852 241 882 326 q 773 100 823 156 q 647 13 723 43 q 462 -16 572 -16 q 237 52 311 -16 q 163 279 163 122 q 179 437 163 348 l 277 998 m 688 1227 q 736 1232 705 1230 q 799 1234 767 1234 q 871 1232 835 1234 q 921 1227 906 1230 l 724 1077 q 684 1073 710 1075 q 630 1072 657 1072 q 573 1074 602 1072 q 534 1079 545 1076 l 688 1227 "},"|":{"x_min":97.234375,"x_max":518.09375,"ha":469,"o":"m 327 1076 q 423 1086 375 1086 q 518 1076 475 1086 l 287 -233 q 191 -241 237 -241 q 97 -233 143 -241 l 327 1076 "},"§":{"x_min":129.171875,"x_max":840.34375,"ha":806,"o":"m 323 306 q 227 371 254 330 q 201 459 201 412 q 234 565 201 519 q 315 655 266 611 q 294 693 301 672 q 287 741 287 713 q 315 852 287 804 q 388 933 343 901 q 493 982 434 965 q 613 998 551 998 q 736 988 684 998 q 840 959 788 979 q 811 884 832 923 q 769 815 791 844 q 698 841 737 830 q 618 851 659 851 q 576 849 600 851 q 531 840 552 847 q 495 818 509 833 q 480 777 480 804 q 495 744 480 755 q 543 722 511 733 l 684 676 q 779 613 755 652 q 804 530 804 573 q 773 416 804 468 q 690 320 743 365 q 711 284 704 305 q 719 236 719 263 q 686 123 719 170 q 603 45 654 76 q 489 -1 552 13 q 365 -16 426 -16 q 237 -6 294 -16 q 129 22 180 2 q 158 97 137 58 q 198 166 179 137 q 275 140 230 151 q 362 130 320 130 q 409 131 380 130 q 463 140 437 133 q 507 163 488 147 q 526 209 526 180 q 511 239 526 230 q 463 259 495 248 l 323 306 m 568 393 q 611 433 588 409 q 633 488 633 456 q 617 526 633 509 q 558 555 601 543 l 431 591 q 390 550 409 575 q 370 494 370 526 q 431 434 370 452 l 568 393 "},"Ý":{"x_min":163.90625,"x_max":957.015625,"ha":782,"o":"m 345 356 l 163 998 q 276 1007 223 1007 q 326 1005 301 1007 q 377 998 351 1004 l 484 555 l 741 998 q 797 1004 769 1002 q 852 1005 825 1005 q 903 1004 876 1005 q 957 998 930 1002 l 550 356 l 487 0 q 432 -6 458 -5 q 381 -8 406 -8 q 334 -6 358 -8 q 283 0 309 -5 l 345 356 m 618 1227 q 666 1232 635 1230 q 729 1234 697 1234 q 801 1232 765 1234 q 851 1227 836 1230 l 654 1077 q 614 1073 640 1075 q 560 1072 587 1072 q 503 1074 532 1072 q 464 1079 475 1076 l 618 1227 "},"₁":{"x_min":168.703125,"x_max":576.078125,"ha":625,"o":"m 304 132 l 347 378 l 243 339 q 212 394 223 366 q 197 458 201 422 l 475 566 l 532 566 l 457 132 l 575 132 q 571 63 578 100 q 551 1 565 26 l 169 1 q 172 69 166 34 q 193 132 177 103 l 304 132 "},"b":{"x_min":106.953125,"x_max":834.78125,"ha":817,"o":"m 326 155 q 354 149 337 151 q 390 147 372 147 q 495 175 451 147 q 567 247 538 204 q 609 344 595 291 q 622 447 622 397 q 602 531 622 495 q 533 566 581 566 q 423 512 469 566 q 356 333 377 458 l 326 155 m 234 745 q 259 966 259 891 q 259 992 259 982 q 256 1015 258 1002 q 311 1021 280 1019 q 363 1023 341 1023 q 452 1015 404 1023 q 459 962 459 994 q 443 813 459 901 l 408 620 q 445 661 425 641 q 491 698 465 682 q 552 725 518 715 q 633 734 587 734 q 782 668 730 734 q 834 475 834 601 q 809 301 834 388 q 725 143 784 213 q 569 27 666 72 q 329 -16 472 -16 q 209 -5 263 -16 q 106 25 155 5 l 234 745 "},"q":{"x_min":104.171875,"x_max":813.953125,"ha":789,"o":"m 512 98 q 415 15 472 47 q 287 -16 358 -16 q 150 43 195 -16 q 104 198 104 102 q 135 399 104 302 q 228 570 166 495 q 381 689 290 644 q 595 734 473 734 q 709 726 657 734 q 813 702 762 718 l 633 -327 q 581 -334 605 -333 q 534 -336 558 -336 q 488 -334 512 -336 q 438 -327 465 -333 l 512 98 m 601 569 q 577 572 588 572 q 555 573 566 573 q 442 540 488 573 q 365 458 395 506 q 320 352 334 409 q 306 247 306 294 q 323 169 306 197 q 375 141 340 141 q 497 222 441 141 q 580 451 554 304 l 601 569 "},"Ö":{"x_min":138.90625,"x_max":998.6875,"ha":967,"o":"m 483 -16 q 222 81 306 -16 q 138 355 138 180 q 152 509 138 430 q 193 661 165 587 q 262 799 220 734 q 361 911 304 863 q 492 987 419 959 q 654 1015 565 1015 q 807 988 741 1015 q 914 913 872 962 q 977 795 957 865 q 998 636 998 725 q 985 482 998 561 q 944 331 972 404 q 874 195 916 259 q 775 84 832 131 q 645 10 718 37 q 483 -16 572 -16 m 501 152 q 597 177 555 152 q 671 240 640 201 q 725 332 702 280 q 760 439 747 384 q 779 548 773 494 q 786 647 786 602 q 636 841 786 841 q 539 817 581 841 q 465 753 497 793 q 411 661 433 713 q 375 554 388 609 q 356 445 362 500 q 350 345 350 391 q 501 152 350 152 m 440 1079 q 448 1162 441 1122 q 469 1243 454 1202 q 516 1249 491 1247 q 559 1251 540 1251 q 603 1249 579 1251 q 648 1243 628 1247 q 641 1159 647 1200 q 619 1079 634 1119 q 572 1073 596 1075 q 528 1072 548 1072 q 484 1073 509 1072 q 440 1079 459 1075 m 747 1079 q 753 1162 746 1122 q 776 1243 759 1202 q 823 1249 798 1247 q 866 1251 847 1251 q 910 1249 886 1251 q 955 1243 935 1247 q 946 1161 953 1201 q 926 1079 940 1120 q 878 1073 903 1075 q 835 1072 854 1072 q 791 1073 815 1072 q 747 1079 766 1075 "},"z":{"x_min":23.609375,"x_max":740.34375,"ha":650,"o":"m 23 16 l 434 566 l 165 566 q 167 606 165 587 q 172 645 169 626 q 179 681 175 663 q 193 718 184 698 l 736 718 l 740 701 l 327 151 l 637 151 q 635 111 637 130 q 630 72 633 91 q 622 36 627 54 q 611 0 618 19 l 31 0 l 23 16 "},"ã":{"x_min":100.015625,"x_max":837.890625,"ha":790,"o":"m 598 569 q 574 572 586 572 q 551 573 562 573 q 438 540 484 573 q 361 456 391 506 q 316 349 330 406 q 302 244 302 291 q 370 141 302 141 q 494 222 437 141 q 577 451 551 304 l 598 569 m 741 311 q 719 156 726 223 q 712 51 712 88 q 712 25 712 36 q 713 2 712 15 q 623 -5 668 -5 q 537 2 584 -5 q 531 29 534 13 q 529 75 529 44 q 529 101 529 87 q 531 133 529 115 q 429 26 491 69 q 283 -16 366 -16 q 145 41 191 -16 q 100 195 100 100 q 131 397 100 300 q 224 569 162 494 q 377 689 286 644 q 591 734 469 734 q 705 726 652 734 q 809 702 758 718 l 741 311 m 332 929 q 404 983 360 959 q 500 1007 448 1007 q 549 999 526 1007 q 594 982 572 991 q 640 966 617 973 q 690 958 664 958 q 735 964 714 958 q 789 997 757 970 q 820 949 805 977 q 837 894 835 920 q 764 841 808 863 q 668 819 719 819 q 618 827 642 819 q 571 843 594 834 q 526 860 548 852 q 478 868 503 868 q 432 860 451 868 q 380 829 412 852 q 350 874 365 845 q 332 929 335 902 "},"æ":{"x_min":100.015625,"x_max":1187.59375,"ha":1156,"o":"m 748 272 q 793 172 757 205 q 898 140 829 140 q 996 152 954 140 q 1086 183 1038 163 q 1116 115 1108 155 q 1123 31 1123 76 q 1068 11 1100 20 q 1004 -3 1037 2 q 937 -13 970 -9 q 877 -16 904 -16 q 682 27 752 -16 q 583 151 612 72 q 441 20 515 56 q 291 -16 368 -16 q 146 41 193 -16 q 100 195 100 100 q 131 397 100 300 q 224 569 162 494 q 375 689 286 644 q 581 734 465 734 q 670 727 629 734 q 762 705 711 720 l 750 638 q 846 704 786 675 q 986 734 907 734 q 1066 723 1029 734 q 1129 689 1102 712 q 1172 633 1157 666 q 1187 555 1187 600 q 1158 447 1187 493 q 1080 369 1129 401 q 970 317 1032 337 q 841 287 908 297 l 748 272 m 598 569 q 574 572 586 572 q 551 573 562 573 q 438 540 484 573 q 361 456 391 506 q 316 349 330 406 q 302 244 302 291 q 370 141 302 141 q 495 222 440 141 q 577 451 551 304 l 598 569 m 827 413 q 913 435 880 422 q 966 464 947 448 q 993 497 986 480 q 1000 530 1000 513 q 982 573 1000 556 q 936 590 965 590 q 870 574 900 590 q 818 531 840 558 q 779 471 795 505 q 755 402 763 437 l 827 413 "},"®":{"x_min":138.90625,"x_max":1169.53125,"ha":1142,"o":"m 468 775 q 543 785 506 782 q 623 788 579 788 q 812 742 755 788 q 869 619 869 695 q 850 535 869 572 q 808 479 832 498 l 787 462 l 909 245 q 868 241 890 243 q 823 240 847 240 q 786 241 804 240 q 752 245 769 243 l 627 488 l 650 502 q 702 545 682 522 q 723 601 723 568 q 704 653 723 633 q 643 673 684 673 q 625 672 633 673 q 604 669 618 672 l 604 244 q 538 238 576 238 q 504 240 522 238 q 468 244 486 241 l 468 775 m 654 84 q 823 116 748 84 q 950 204 898 148 q 1030 335 1002 259 q 1058 498 1058 411 q 1030 661 1058 586 q 950 793 1002 737 q 823 880 898 848 q 654 912 748 912 q 484 880 559 912 q 357 793 409 848 q 277 661 305 737 q 250 498 250 586 q 277 335 250 411 q 357 204 305 259 q 484 116 409 148 q 654 84 559 84 m 654 -18 q 443 21 538 -18 q 281 129 348 61 q 176 293 213 198 q 138 498 138 387 q 176 703 138 608 q 281 867 213 798 q 443 975 348 936 q 654 1015 538 1015 q 864 976 769 1015 q 1027 868 959 937 q 1132 704 1094 798 q 1169 498 1169 609 q 1132 293 1169 387 q 1027 129 1094 198 q 864 21 959 61 q 654 -18 769 -18 "},"É":{"x_min":109.734375,"x_max":833.40625,"ha":736,"o":"m 284 998 l 832 998 q 832 987 832 993 q 833 976 833 982 q 825 902 833 940 q 801 826 816 865 l 456 826 l 419 609 l 693 609 q 662 436 693 526 l 388 436 l 341 172 l 695 172 q 696 161 695 166 q 697 151 697 156 q 688 77 697 113 q 666 0 679 40 l 109 0 l 284 998 m 594 1227 q 642 1232 611 1230 q 705 1234 673 1234 q 777 1232 741 1234 q 827 1227 812 1230 l 630 1077 q 590 1073 616 1075 q 536 1072 563 1072 q 479 1074 508 1072 q 440 1079 451 1076 l 594 1227 "},"~":{"x_min":138.90625,"x_max":765.34375,"ha":710,"o":"m 138 586 q 177 614 154 600 q 230 641 201 629 q 291 661 259 654 q 351 669 322 669 q 416 660 388 669 q 469 641 444 651 q 520 622 494 630 q 583 613 547 613 q 632 624 607 613 q 687 661 657 634 q 729 607 712 633 q 765 537 747 581 q 724 506 748 520 q 671 481 700 491 q 611 464 643 470 q 551 458 580 458 q 491 466 518 458 q 438 485 463 475 q 386 504 413 495 q 326 513 359 513 q 215 466 272 513 q 170 523 191 495 q 138 586 150 551 "},"³":{"x_min":163.90625,"x_max":662.546875,"ha":625,"o":"m 301 691 l 454 857 l 265 857 q 270 919 265 888 q 286 982 275 950 l 652 982 l 662 954 l 501 761 q 589 714 559 751 q 619 623 619 677 q 597 533 619 573 q 538 465 576 493 q 452 422 501 437 q 347 408 402 408 q 244 418 288 408 q 163 443 200 427 q 184 504 169 475 q 219 556 200 534 q 283 536 255 544 q 347 529 311 529 q 388 534 368 529 q 426 549 409 538 q 452 575 443 559 q 462 611 462 590 q 439 657 462 643 q 386 670 416 670 q 363 669 377 670 q 325 661 348 668 l 301 691 "},"¡":{"x_min":51.390625,"x_max":438.921875,"ha":415,"o":"m 187 395 q 281 404 238 404 q 375 395 329 404 l 265 -283 q 209 -290 236 -288 q 156 -291 183 -291 q 104 -290 131 -291 q 51 -283 77 -288 l 187 395 m 201 512 q 210 615 201 566 q 236 715 219 663 q 288 722 263 720 q 338 725 313 725 q 388 722 362 725 q 438 715 413 720 q 429 612 438 661 q 404 512 420 563 q 351 504 376 506 q 301 502 326 502 q 252 504 277 502 q 201 512 226 506 "},"[":{"x_min":59.734375,"x_max":614.421875,"ha":485,"o":"m 290 1077 l 613 1077 q 586 919 618 1000 l 454 919 l 279 -75 l 411 -75 q 383 -233 411 -151 l 59 -233 l 290 1077 "},"L":{"x_min":109.734375,"x_max":668.109375,"ha":679,"o":"m 284 998 q 387 1008 337 1008 q 484 998 436 1008 l 340 175 l 668 175 q 665 129 668 151 q 659 88 662 108 q 650 45 655 66 q 637 0 644 23 l 109 0 l 284 998 "}," ":{"x_min":0,"x_max":0,"ha":290},"%":{"x_min":154.5625,"x_max":1398.390625,"ha":1399,"o":"m 1017 984 q 1114 993 1064 993 q 1210 984 1157 993 l 538 2 q 445 -5 489 -5 q 346 2 398 -5 l 1017 984 m 390 540 q 448 563 425 540 q 485 621 471 587 q 506 693 500 655 q 512 762 512 732 q 496 838 512 811 q 444 865 480 865 q 386 841 410 865 q 349 781 362 816 q 329 707 335 745 q 324 638 324 668 q 340 566 324 593 q 390 540 357 540 m 372 408 q 272 426 314 408 q 205 475 230 444 q 167 547 179 505 q 154 634 154 588 q 174 769 154 704 q 233 886 194 834 q 330 968 272 937 q 467 998 389 998 q 565 980 524 998 q 631 931 606 962 q 669 858 657 900 q 682 769 682 816 q 660 629 682 694 q 597 514 637 563 q 500 436 557 465 q 372 408 443 408 m 1106 115 q 1164 138 1141 115 q 1201 196 1187 162 q 1222 268 1216 230 q 1228 337 1228 307 q 1212 413 1228 386 q 1160 440 1196 440 q 1102 416 1126 440 q 1065 356 1078 391 q 1045 282 1051 320 q 1040 213 1040 243 q 1056 141 1040 168 q 1106 115 1073 115 m 1088 -16 q 988 1 1030 -16 q 921 50 946 19 q 883 122 895 80 q 870 209 870 163 q 890 344 870 279 q 949 461 910 409 q 1046 543 988 512 q 1183 573 1105 573 q 1281 555 1240 573 q 1347 506 1322 537 q 1385 433 1373 475 q 1398 344 1398 391 q 1376 204 1398 269 q 1313 89 1353 138 q 1216 11 1273 40 q 1088 -16 1159 -16 "},"P":{"x_min":109.734375,"x_max":872.296875,"ha":807,"o":"m 286 1001 q 343 1007 316 1004 q 395 1011 369 1009 q 446 1014 420 1013 q 502 1015 472 1015 q 627 1004 562 1015 q 747 961 693 993 q 836 873 801 930 q 872 726 872 816 q 842 563 872 638 q 755 434 812 488 q 616 348 698 379 q 430 318 534 318 q 394 318 408 318 q 368 320 380 319 l 312 0 q 259 -5 284 -4 q 211 -6 234 -6 q 164 -5 190 -6 q 109 0 138 -4 l 286 1001 m 398 490 q 461 486 416 486 q 529 497 494 486 q 593 534 563 508 q 641 604 622 561 q 659 712 659 647 q 646 779 659 752 q 611 820 633 805 q 563 840 590 834 q 512 845 537 845 q 491 845 501 845 q 461 843 481 845 l 398 490 "},"À":{"x_min":34.71875,"x_max":855.625,"ha":879,"o":"m 501 998 q 560 1004 529 1002 q 619 1007 591 1007 q 733 998 676 1007 l 855 0 q 754 -8 802 -8 q 650 0 705 -8 l 632 201 l 327 201 l 238 0 q 134 -8 188 -8 q 34 0 81 -8 l 501 998 m 616 368 l 580 768 l 402 368 l 616 368 m 383 1240 q 404 1242 390 1241 q 438 1244 419 1243 q 477 1246 457 1245 q 515 1247 497 1247 q 578 1245 547 1247 q 626 1240 609 1243 l 748 1079 q 710 1073 737 1076 q 655 1070 683 1070 q 604 1072 627 1070 q 566 1076 580 1073 l 383 1240 "},"_":{"x_min":-10.28125,"x_max":668.671875,"ha":685,"o":"m 668 -2 q 667 -38 669 -22 q 662 -73 665 -55 q 644 -138 658 -102 l -9 -138 q -9 -102 -11 -119 q -4 -68 -6 -86 q 2 -37 -1 -52 q 12 -2 5 -22 l 668 -2 "},"ñ":{"x_min":101.390625,"x_max":805.625,"ha":813,"o":"m 176 409 q 199 564 191 497 q 206 669 206 632 q 206 695 206 684 q 205 718 206 705 q 297 726 251 726 q 338 724 318 726 q 383 718 359 722 q 388 691 386 707 q 391 645 391 676 q 391 620 391 633 q 387 590 390 608 q 429 645 404 619 q 486 691 454 672 q 554 722 518 711 q 629 733 591 733 q 759 691 712 733 q 805 550 805 648 q 802 505 805 529 q 795 455 800 481 l 715 0 q 613 -8 662 -8 q 518 0 565 -8 l 595 440 q 601 493 601 468 q 583 551 601 534 q 531 568 565 568 q 488 558 512 568 q 438 517 463 548 q 390 429 413 486 q 350 279 366 372 l 298 0 q 197 -8 244 -8 q 101 0 148 -8 l 176 409 m 298 929 q 370 983 326 959 q 466 1007 414 1007 q 515 999 492 1007 q 560 982 538 991 q 606 966 583 973 q 656 958 630 958 q 701 964 680 958 q 755 997 723 970 q 786 949 771 977 q 803 894 801 920 q 730 841 774 863 q 634 819 685 819 q 584 827 608 819 q 537 843 560 834 q 492 860 514 852 q 444 868 469 868 q 398 860 417 868 q 346 829 378 852 q 316 874 331 845 q 298 929 301 902 "},"+":{"x_min":184.734375,"x_max":818.828125,"ha":833,"o":"m 400 406 l 184 406 q 213 575 184 487 l 429 575 l 473 820 q 561 829 515 829 q 647 820 605 829 l 602 575 l 818 575 q 812 492 820 534 q 788 406 804 450 l 573 406 l 530 161 q 443 152 486 152 q 356 161 395 152 l 400 406 "},"½":{"x_min":197.703125,"x_max":1433.65625,"ha":1458,"o":"m 333 554 l 376 800 l 272 761 q 241 816 252 788 q 226 880 230 844 l 504 988 l 561 988 l 486 554 l 604 554 q 600 485 607 522 q 580 423 594 448 l 198 423 q 201 491 195 456 q 222 554 206 525 l 333 554 m 1066 984 q 1163 993 1113 993 q 1259 984 1206 993 l 587 2 q 494 -5 538 -5 q 395 2 447 -5 l 1066 984 m 947 26 l 1160 230 q 1231 305 1198 268 q 1264 380 1264 341 q 1198 443 1264 443 q 1136 434 1166 443 q 1073 410 1105 425 q 1052 463 1062 433 q 1039 528 1041 493 q 1133 562 1079 547 q 1240 576 1187 576 q 1383 531 1333 576 q 1433 415 1433 486 q 1422 344 1433 375 q 1391 284 1411 312 q 1346 230 1372 255 q 1289 175 1319 204 l 1244 133 l 1411 133 q 1405 67 1411 101 q 1387 1 1400 33 l 953 1 l 947 26 "},"Æ":{"x_min":0,"x_max":1365.390625,"ha":1268,"o":"m 669 998 l 1364 998 q 1364 987 1364 993 q 1365 976 1365 982 q 1357 902 1365 940 q 1333 826 1348 865 l 988 826 l 951 609 l 1225 609 q 1194 436 1225 526 l 920 436 l 873 172 l 1227 172 q 1228 161 1227 166 q 1229 151 1229 156 q 1220 77 1229 113 q 1198 0 1211 40 l 641 0 l 677 205 l 361 205 l 220 0 q 163 -6 195 -4 q 104 -8 131 -8 q 50 -6 76 -8 q 0 0 23 -4 l 669 998 m 707 373 l 788 843 l 780 843 l 475 373 l 707 373 "},"Ë":{"x_min":109.734375,"x_max":853.84375,"ha":736,"o":"m 284 998 l 832 998 q 832 987 832 993 q 833 976 833 982 q 825 902 833 940 q 801 826 816 865 l 456 826 l 419 609 l 693 609 q 662 436 693 526 l 388 436 l 341 172 l 695 172 q 696 161 695 166 q 697 151 697 156 q 688 77 697 113 q 666 0 679 40 l 109 0 l 284 998 m 338 1079 q 346 1162 339 1122 q 367 1243 352 1202 q 414 1249 389 1247 q 457 1251 438 1251 q 501 1249 477 1251 q 546 1243 526 1247 q 539 1159 545 1200 q 517 1079 532 1119 q 470 1073 494 1075 q 426 1072 446 1072 q 382 1073 407 1072 q 338 1079 357 1075 m 645 1079 q 651 1162 644 1122 q 674 1243 657 1202 q 721 1249 696 1247 q 764 1251 745 1251 q 808 1249 784 1251 q 853 1243 833 1247 q 844 1161 851 1201 q 824 1079 838 1120 q 776 1073 801 1075 q 733 1072 752 1072 q 689 1073 713 1072 q 645 1079 664 1075 "},"'":{"x_min":168.0625,"x_max":415.3125,"ha":329,"o":"m 236 997 q 281 1004 259 1002 q 326 1005 302 1005 q 370 1004 348 1005 q 415 997 391 1002 l 347 608 q 300 602 322 604 q 256 601 279 601 q 211 602 233 601 q 168 608 190 604 l 236 997 "},"ª":{"x_min":172.234375,"x_max":754.234375,"ha":695,"o":"m 576 866 q 557 870 566 869 q 540 870 548 870 q 450 844 487 870 q 390 779 413 818 q 355 694 366 740 q 344 611 344 648 q 397 530 344 530 q 496 598 450 530 q 562 783 543 666 l 576 866 m 700 663 q 683 541 688 594 q 677 459 677 488 q 677 440 677 448 q 679 420 677 431 q 636 416 659 418 q 597 415 613 415 q 564 416 580 415 q 529 420 548 418 q 524 441 526 429 q 522 477 522 454 q 522 499 522 488 q 525 523 522 509 q 444 439 493 473 q 329 405 395 405 q 211 450 250 405 q 172 570 172 494 q 197 728 172 651 q 273 865 223 805 q 397 961 323 925 q 570 997 472 997 q 666 991 619 997 q 754 972 713 984 l 700 663 "},"ð":{"x_min":109.734375,"x_max":798.671875,"ha":795,"o":"m 451 844 q 397 862 427 855 q 338 870 366 869 q 345 950 338 911 q 375 1023 352 990 q 514 1003 450 1023 q 618 951 579 983 l 738 1022 q 768 988 755 1007 q 788 943 782 970 l 693 883 q 739 807 719 850 q 772 715 759 763 q 792 615 786 666 q 798 512 798 563 q 776 325 798 419 q 705 154 754 230 q 577 31 657 79 q 386 -16 498 -16 q 178 57 247 -16 q 109 258 109 131 q 132 413 109 338 q 201 547 155 488 q 314 641 247 605 q 469 676 381 676 q 553 661 512 676 q 623 616 594 645 q 585 711 608 668 q 534 783 562 755 l 411 709 q 379 742 395 720 q 356 788 363 763 l 451 844 m 411 127 q 495 155 461 127 q 550 225 529 183 q 579 316 570 266 q 588 408 588 365 q 563 501 588 469 q 483 533 538 533 q 399 505 433 533 q 344 436 365 477 q 315 347 323 395 q 306 261 306 300 q 331 161 306 194 q 411 127 356 127 "},"T":{"x_min":184.734375,"x_max":891.734375,"ha":763,"o":"m 420 826 l 184 826 q 192 911 184 869 q 215 998 200 954 l 891 998 q 884 913 891 955 q 861 826 876 872 l 625 826 l 480 0 q 376 -8 423 -8 q 276 0 326 -8 l 420 826 "},"⁷":{"x_min":234.734375,"x_max":705.609375,"ha":625,"o":"m 479 858 l 252 858 q 258 919 252 888 q 273 982 263 950 l 698 982 l 705 959 l 370 406 q 299 427 333 413 q 234 463 265 440 l 479 858 "},"Þ":{"x_min":119.453125,"x_max":851.453125,"ha":826,"o":"m 295 1001 q 345 1005 322 1004 q 391 1007 368 1007 q 447 1005 419 1007 q 498 1001 475 1004 l 469 847 q 596 836 529 847 q 720 792 663 825 q 813 701 776 759 q 851 548 851 643 q 821 391 851 463 q 734 264 791 318 q 595 180 677 211 q 409 150 513 150 q 373 150 387 150 q 347 152 359 151 l 322 0 q 269 -5 294 -4 q 220 -6 244 -6 q 174 -5 200 -6 q 119 0 148 -4 l 295 1001 m 377 322 q 440 318 395 318 q 508 329 473 318 q 572 366 543 340 q 620 433 601 391 q 638 537 638 475 q 625 607 638 580 q 591 650 612 634 q 543 672 569 666 q 491 677 516 677 q 470 677 480 677 q 440 675 461 677 l 377 322 "},"j":{"x_min":-123.625,"x_max":506.984375,"ha":433,"o":"m 234 568 l 147 568 q 146 578 147 573 q 145 588 145 583 q 153 652 145 620 q 173 718 161 684 l 454 718 l 312 -87 q 205 -279 288 -220 q 0 -338 122 -338 q -122 -323 -63 -338 q -123 -307 -123 -315 q -123 -293 -123 -300 q -94 -177 -123 -230 q -59 -184 -79 -181 q -22 -187 -38 -187 q 25 -182 2 -187 q 68 -163 48 -177 q 102 -122 87 -148 q 125 -52 116 -95 l 234 568 m 276 843 q 281 931 273 887 q 306 1019 290 975 q 361 1029 334 1026 q 409 1033 388 1033 q 455 1029 429 1033 q 506 1019 481 1026 q 500 935 506 977 q 476 844 493 893 q 420 834 448 837 q 373 832 393 832 q 326 834 352 832 q 276 843 300 836 "},"1":{"x_min":155.5625,"x_max":757,"ha":833,"o":"m 372 166 l 455 644 l 290 579 q 270 619 279 600 q 256 655 262 638 q 247 693 250 675 q 241 732 244 711 l 655 908 l 701 908 l 570 166 l 757 166 q 750 88 757 129 q 727 0 743 48 l 155 0 q 184 166 155 83 l 372 166 "},"ä":{"x_min":100.015625,"x_max":839.34375,"ha":790,"o":"m 598 569 q 574 572 586 572 q 551 573 562 573 q 438 540 484 573 q 361 456 391 506 q 316 349 330 406 q 302 244 302 291 q 370 141 302 141 q 494 222 437 141 q 577 451 551 304 l 598 569 m 741 311 q 719 156 726 223 q 712 51 712 88 q 712 25 712 36 q 713 2 712 15 q 623 -5 668 -5 q 537 2 584 -5 q 531 29 534 13 q 529 75 529 44 q 529 101 529 87 q 531 133 529 115 q 429 26 491 69 q 283 -16 366 -16 q 145 41 191 -16 q 100 195 100 100 q 131 397 100 300 q 224 569 162 494 q 377 689 286 644 q 591 734 469 734 q 705 726 652 734 q 809 702 758 718 l 741 311 m 324 823 q 331 907 325 866 q 353 987 337 947 q 399 993 375 991 q 443 995 424 995 q 487 993 462 995 q 532 987 511 991 q 524 904 530 944 q 503 823 518 863 q 455 818 479 819 q 411 816 432 816 q 368 818 393 816 q 324 823 343 819 m 630 823 q 636 907 629 866 q 660 987 643 947 q 706 993 682 991 q 750 995 731 995 q 794 993 769 995 q 839 987 818 991 q 830 905 836 945 q 810 823 824 865 q 762 818 786 819 q 718 816 737 816 q 674 818 699 816 q 630 823 650 819 "},"<":{"x_min":184.34375,"x_max":836.171875,"ha":833,"o":"m 836 801 q 829 707 836 757 q 805 611 822 657 l 361 468 l 752 312 q 745 223 754 268 q 719 140 737 179 l 184 368 q 220 575 180 473 l 836 801 "},"£":{"x_min":108.34375,"x_max":905.625,"ha":833,"o":"m 108 19 l 129 34 q 201 106 169 65 q 254 195 233 147 q 287 295 276 243 q 298 400 298 347 l 168 400 q 194 550 168 472 l 295 550 q 291 620 291 587 q 313 770 291 701 q 381 891 336 840 q 497 970 427 941 q 661 998 566 998 q 802 982 744 998 q 905 947 861 966 q 882 875 898 915 q 836 791 865 836 q 757 820 800 807 q 654 833 715 833 q 531 781 568 833 q 494 629 494 729 q 495 590 494 611 q 498 550 495 569 l 716 550 q 711 475 719 513 q 690 400 704 436 l 500 400 q 479 284 500 341 q 425 175 458 227 l 783 175 q 780 129 783 151 q 775 88 777 108 q 765 45 770 66 q 752 0 759 23 l 111 0 l 108 19 "},"¹":{"x_min":197.703125,"x_max":605.078125,"ha":625,"o":"m 333 554 l 376 800 l 272 761 q 241 816 252 788 q 226 880 230 844 l 504 988 l 561 988 l 486 554 l 604 554 q 600 485 607 522 q 580 423 594 448 l 198 423 q 201 491 195 456 q 222 554 206 525 l 333 554 "},"t":{"x_min":109.734375,"x_max":609.765625,"ha":529,"o":"m 216 568 l 109 568 q 115 641 109 605 q 136 718 120 677 l 243 718 l 251 759 q 259 825 258 794 q 261 877 261 857 q 351 911 297 901 q 451 920 405 920 q 458 868 458 900 q 454 820 458 845 q 445 763 451 794 l 437 718 l 609 718 q 602 641 609 676 q 583 568 595 607 l 411 568 l 362 294 q 357 258 359 275 q 355 226 355 241 q 372 169 355 190 q 434 148 388 148 q 476 152 458 148 q 509 159 494 155 q 527 54 527 119 q 527 31 527 43 q 526 9 527 20 q 383 -8 466 -8 q 210 34 266 -8 q 154 179 154 77 q 156 222 154 200 q 163 270 159 244 l 216 568 "},"¬":{"x_min":173.625,"x_max":775.0625,"ha":833,"o":"m 775 576 l 775 176 q 690 168 733 168 q 604 176 645 168 l 604 405 l 181 405 q 173 490 173 447 q 181 576 173 534 l 775 576 "},"ù":{"x_min":133.34375,"x_max":837.5625,"ha":813,"o":"m 223 718 q 275 724 250 722 q 325 726 301 726 q 420 718 372 726 l 343 277 q 337 225 337 250 q 355 166 337 183 q 406 150 373 150 q 450 159 426 150 q 500 200 475 169 q 548 288 525 231 q 588 438 572 344 l 640 718 q 741 726 694 726 q 837 718 788 726 l 762 308 q 739 153 747 220 q 732 48 732 86 q 732 22 732 33 q 733 0 732 12 q 641 -8 687 -8 q 555 0 602 -8 q 550 26 552 11 q 547 72 547 41 q 547 97 547 84 q 551 127 548 109 q 509 72 534 98 q 452 26 484 45 q 384 -4 420 6 q 309 -15 347 -15 q 179 27 226 -15 q 133 168 133 69 q 136 212 133 188 q 143 262 138 236 l 223 718 m 301 998 q 354 1004 329 1002 q 416 1007 380 1007 q 541 998 484 1007 l 665 827 q 574 819 619 819 q 522 822 547 819 q 479 827 497 825 l 301 998 "},"W":{"x_min":198.625,"x_max":1383.4375,"ha":1238,"o":"m 198 998 q 306 1007 248 1007 q 359 1006 334 1007 q 409 998 384 1005 l 412 272 l 700 998 q 752 1005 729 1004 q 800 1007 775 1007 q 843 1005 820 1007 q 888 998 865 1004 l 922 254 l 1184 998 q 1235 1005 1209 1004 q 1284 1007 1261 1007 q 1334 1004 1308 1007 q 1383 998 1361 1002 l 980 0 q 926 -6 954 -4 q 873 -8 898 -8 q 762 0 822 -8 l 726 643 l 456 0 l 408 -4 q 338 -8 372 -8 q 248 0 298 -8 l 198 998 "},"ï":{"x_min":96.015625,"x_max":611.34375,"ha":433,"o":"m 234 568 l 147 568 q 146 576 147 572 q 145 586 145 580 q 152 653 145 622 q 173 718 159 684 l 454 718 l 327 0 q 227 -8 275 -8 q 134 0 184 -8 l 234 568 m 96 823 q 103 907 97 866 q 125 987 109 947 q 171 993 147 991 q 215 995 196 995 q 259 993 234 995 q 304 987 283 991 q 296 904 302 944 q 275 823 290 863 q 227 818 251 819 q 183 816 204 816 q 140 818 165 816 q 96 823 115 819 m 402 823 q 408 907 401 866 q 432 987 415 947 q 478 993 454 991 q 522 995 503 995 q 566 993 541 995 q 611 987 590 991 q 602 905 608 945 q 582 823 596 865 q 534 818 558 819 q 490 816 509 816 q 446 818 471 816 q 402 823 422 819 "},">":{"x_min":152.796875,"x_max":804.234375,"ha":833,"o":"m 627 481 l 236 629 l 236 638 q 269 801 236 727 l 804 573 l 804 552 q 768 366 804 456 l 152 140 q 159 234 152 184 q 183 330 166 284 l 627 481 "},"v":{"x_min":127.78125,"x_max":818.125,"ha":738,"o":"m 127 718 q 230 726 179 726 q 338 718 286 726 l 393 191 l 550 530 q 588 635 580 595 q 595 702 595 675 l 595 718 q 647 724 619 722 q 707 726 676 726 q 818 718 769 726 l 818 711 q 801 632 818 677 q 744 513 784 587 l 463 0 q 406 -5 436 -4 q 358 -6 377 -6 q 306 -6 338 -6 q 250 0 273 -5 l 127 718 "},"û":{"x_min":133.34375,"x_max":837.5625,"ha":813,"o":"m 223 718 q 275 724 250 722 q 325 726 301 726 q 420 718 372 726 l 343 277 q 337 225 337 250 q 355 166 337 183 q 406 150 373 150 q 450 159 426 150 q 500 200 475 169 q 548 288 525 231 q 588 438 572 344 l 640 718 q 741 726 694 726 q 837 718 788 726 l 762 308 q 739 153 747 220 q 732 48 732 86 q 732 22 732 33 q 733 0 732 12 q 641 -8 687 -8 q 555 0 602 -8 q 550 26 552 11 q 547 72 547 41 q 547 97 547 84 q 551 127 548 109 q 509 72 534 98 q 452 26 484 45 q 384 -4 420 6 q 309 -15 347 -15 q 179 27 226 -15 q 133 168 133 69 q 136 212 133 188 q 143 262 138 236 l 223 718 m 460 998 q 515 1003 483 1001 q 576 1005 547 1005 q 623 1004 594 1005 q 678 997 651 1002 l 783 826 q 697 818 750 818 q 647 820 674 818 q 599 827 621 822 l 557 916 l 486 827 q 439 820 467 822 q 386 818 411 818 q 293 826 331 818 l 460 998 "},"Ò":{"x_min":138.90625,"x_max":998.6875,"ha":967,"o":"m 483 -16 q 222 81 306 -16 q 138 355 138 180 q 152 509 138 430 q 193 661 165 587 q 262 799 220 734 q 361 911 304 863 q 492 987 419 959 q 654 1015 565 1015 q 807 988 741 1015 q 914 913 872 962 q 977 795 957 865 q 998 636 998 725 q 985 482 998 561 q 944 331 972 404 q 874 195 916 259 q 775 84 832 131 q 645 10 718 37 q 483 -16 572 -16 m 501 152 q 597 177 555 152 q 671 240 640 201 q 725 332 702 280 q 760 439 747 384 q 779 548 773 494 q 786 647 786 602 q 636 841 786 841 q 539 817 581 841 q 465 753 497 793 q 411 661 433 713 q 375 554 388 609 q 356 445 362 500 q 350 345 350 391 q 501 152 350 152 m 477 1240 q 498 1242 484 1241 q 532 1244 513 1243 q 571 1246 551 1245 q 609 1247 591 1247 q 672 1245 641 1247 q 720 1240 703 1243 l 842 1079 q 804 1073 831 1076 q 749 1070 777 1070 q 698 1072 721 1070 q 660 1076 674 1073 l 477 1240 "},"&":{"x_min":125.015625,"x_max":1080.640625,"ha":1028,"o":"m 779 647 l 782 661 q 790 727 788 695 q 791 779 791 758 q 880 812 827 802 q 979 822 933 822 q 986 769 986 801 q 982 721 986 747 q 973 665 979 695 l 969 647 l 1080 647 q 1071 571 1077 605 q 1054 497 1065 537 l 944 497 l 915 327 q 854 161 897 227 q 752 54 812 94 q 616 0 691 15 q 458 -16 541 -16 q 328 -1 388 -16 q 222 45 268 13 q 151 129 177 77 q 125 251 125 180 q 144 363 125 312 q 194 453 163 413 q 263 520 225 493 q 340 563 302 548 q 274 630 301 587 q 247 732 247 673 q 276 854 247 801 q 353 943 305 907 q 462 997 401 979 q 587 1015 523 1015 q 682 1008 633 1015 q 769 984 730 1001 q 758 911 766 945 q 726 837 750 876 q 653 857 683 852 q 593 862 623 862 q 536 855 563 862 q 489 834 509 848 q 456 796 469 819 q 444 741 444 773 q 468 674 444 701 q 550 647 493 647 l 779 647 m 752 497 l 579 497 q 497 489 529 497 q 447 472 466 481 q 366 398 397 447 q 336 283 336 350 q 376 187 336 222 q 488 152 416 152 q 588 169 547 152 q 659 215 630 186 q 707 287 688 245 q 733 379 725 329 l 752 497 "},"Ð":{"x_min":104.546875,"x_max":1000.078125,"ha":970,"o":"m 204 443 l 105 443 q 107 513 102 479 q 127 583 112 548 l 227 583 l 301 997 q 415 1009 356 1004 q 538 1015 473 1015 q 731 987 645 1015 q 876 907 816 959 q 968 779 936 855 q 1000 608 1000 704 q 952 341 1000 458 q 820 145 905 225 q 618 25 736 66 q 362 -16 501 -16 q 231 -11 283 -16 q 126 0 180 -6 l 204 443 m 358 161 q 427 156 383 156 q 571 188 506 156 q 683 277 636 220 q 756 413 730 334 q 782 588 782 493 q 764 700 782 652 q 717 779 747 748 q 645 825 687 809 q 556 840 604 840 q 512 839 527 840 q 477 836 497 838 l 433 583 l 619 583 q 595 443 625 512 l 408 443 l 358 161 "},"I":{"x_min":109.734375,"x_max":488.921875,"ha":421,"o":"m 284 997 q 387 1007 337 1007 q 436 1004 411 1007 q 488 997 462 1002 l 313 0 q 209 -8 256 -8 q 109 0 159 -8 l 284 997 "},"G":{"x_min":143.0625,"x_max":920.90625,"ha":915,"o":"m 718 516 q 770 524 745 522 q 819 526 795 526 q 868 524 843 526 q 919 516 894 522 l 832 22 q 694 -7 770 1 q 551 -16 618 -16 q 373 12 450 -16 q 245 93 297 41 q 168 214 194 144 q 143 366 143 284 q 183 619 143 501 q 296 825 223 737 q 472 964 369 913 q 700 1015 575 1015 q 816 1007 765 1015 q 920 975 868 998 q 899 894 912 932 q 862 812 886 857 q 783 836 819 830 q 712 841 747 841 q 553 801 619 841 q 445 696 487 761 q 382 550 402 632 q 362 384 362 468 q 421 212 362 263 q 577 161 480 161 q 620 163 597 161 q 657 168 644 165 l 718 516 "},"`":{"x_min":308.359375,"x_max":672.28125,"ha":695,"o":"m 308 998 q 361 1004 336 1002 q 423 1007 387 1007 q 548 998 491 1007 l 672 827 q 581 819 626 819 q 529 822 554 819 q 486 827 504 825 l 308 998 "},"₉":{"x_min":142.90625,"x_max":611,"ha":625,"o":"m 195 -17 q 184 51 184 19 q 192 105 184 78 q 261 114 226 107 q 330 139 297 122 q 392 184 363 157 q 444 253 422 211 q 291 190 369 190 q 185 230 229 190 q 142 346 142 271 q 164 444 142 400 q 222 519 185 489 q 304 566 258 550 q 401 583 351 583 q 558 524 506 583 q 611 373 611 465 q 580 221 611 290 q 494 101 549 153 q 363 19 438 50 q 195 -17 287 -10 m 362 301 q 421 329 394 301 q 448 397 448 357 q 432 448 448 429 q 384 466 416 466 q 323 436 347 466 q 299 366 299 405 q 316 316 299 330 q 362 301 333 301 "},"·":{"x_min":158.625,"x_max":396.140625,"ha":401,"o":"m 193 499 q 246 507 221 505 q 296 509 271 509 q 345 507 319 509 q 396 499 371 505 q 387 397 396 445 q 361 297 378 348 q 308 289 333 291 q 258 287 283 287 q 209 289 235 287 q 158 297 183 291 q 167 399 158 351 q 193 499 176 448 "},"r":{"x_min":101.390625,"x_max":645.890625,"ha":547,"o":"m 176 409 q 199 564 191 497 q 206 669 206 632 q 206 695 206 684 q 205 718 206 705 q 297 726 251 726 q 338 724 318 726 q 383 718 359 722 q 388 691 386 707 q 391 645 391 676 q 391 620 391 633 q 387 590 390 608 q 422 639 401 615 q 468 683 443 663 q 525 714 494 702 q 594 726 556 726 q 644 719 623 726 q 645 708 645 713 q 645 695 645 702 q 636 615 645 657 q 609 545 626 573 q 591 548 601 547 q 566 550 581 550 q 472 530 509 550 q 412 475 436 511 q 375 390 388 440 q 350 279 361 340 l 298 0 q 197 -8 244 -8 q 101 0 148 -8 l 176 409 "},"¿":{"x_min":52.78125,"x_max":593.109375,"ha":615,"o":"m 341 402 q 434 411 388 411 q 479 409 456 411 q 523 402 502 408 l 481 163 q 411 144 450 158 q 338 106 372 130 q 282 47 305 81 q 259 -34 259 12 q 295 -106 259 -81 q 388 -131 330 -131 q 465 -125 430 -131 q 551 -100 500 -118 q 579 -175 569 -136 q 593 -256 590 -213 q 463 -291 526 -283 q 352 -298 401 -298 q 131 -238 209 -298 q 52 -63 52 -179 q 72 45 52 -6 q 129 143 93 98 q 213 221 165 187 q 319 276 262 255 l 341 402 m 352 513 q 361 616 352 568 q 387 716 370 665 q 440 724 415 722 q 490 726 465 726 q 539 724 513 726 q 590 716 565 722 q 581 613 590 662 q 555 513 572 565 q 502 506 527 508 q 452 504 477 504 q 403 506 429 504 q 352 513 377 508 "},"₇":{"x_min":172.734375,"x_max":643.609375,"ha":625,"o":"m 417 436 l 190 436 q 196 497 190 466 q 211 560 201 528 l 636 560 l 643 537 l 308 -15 q 237 5 271 -8 q 172 41 203 18 l 417 436 "},"ý":{"x_min":37.5,"x_max":812.5625,"ha":753,"o":"m 141 718 q 248 726 193 726 q 345 718 297 726 l 383 90 q 474 288 437 204 q 536 432 511 372 q 574 533 561 493 q 594 601 587 573 q 602 647 601 629 q 604 683 604 666 q 602 704 604 697 q 600 718 601 711 q 650 724 623 722 q 704 726 676 726 q 808 718 759 726 q 812 688 812 705 q 806 636 812 665 q 791 579 800 608 q 771 525 782 551 q 752 477 761 498 q 652 257 716 391 q 486 -81 587 123 q 401 -219 443 -168 q 316 -297 359 -270 q 230 -331 273 -323 q 143 -338 187 -338 q 88 -334 111 -338 q 37 -322 65 -330 q 48 -245 40 -281 q 76 -176 56 -209 q 106 -185 88 -181 q 136 -188 123 -188 q 175 -185 152 -188 q 222 -164 197 -181 q 277 -111 248 -147 q 334 -13 305 -76 l 341 1 q 308 -2 326 -1 q 270 -2 290 -2 q 238 -2 256 -2 q 206 0 220 -2 l 141 718 m 517 998 q 642 1007 572 1007 q 703 1004 678 1007 q 757 998 729 1002 l 561 827 q 518 822 543 825 q 465 819 493 819 q 375 827 421 819 l 517 998 "},"x":{"x_min":31.953125,"x_max":790.34375,"ha":742,"o":"m 237 369 l 156 718 q 256 726 204 726 q 303 724 283 726 q 350 718 323 722 l 425 369 l 280 123 q 246 57 256 83 q 233 1 236 31 q 168 -6 195 -5 q 126 -6 141 -6 q 87 -6 106 -6 q 31 0 68 -5 q 45 61 34 31 q 81 129 56 90 l 237 369 m 434 369 l 563 587 q 593 659 587 626 q 600 719 598 691 q 660 726 637 726 q 700 726 683 726 q 743 725 722 726 q 790 719 765 723 q 784 654 790 693 q 747 568 777 615 l 622 377 l 709 0 q 605 -8 652 -8 q 508 0 555 -8 l 434 369 "},"è":{"x_min":106.953125,"x_max":738.953125,"ha":707,"o":"m 300 272 q 344 172 308 205 q 450 140 380 140 q 547 152 505 140 q 637 183 590 163 q 667 115 659 155 q 675 31 675 76 q 620 11 651 20 q 555 -3 588 2 q 488 -13 522 -9 q 429 -16 455 -16 q 284 4 344 -16 q 184 63 223 25 q 125 156 144 101 q 106 277 106 211 q 136 444 106 362 q 218 591 165 526 q 349 695 272 655 q 522 734 426 734 q 607 723 568 734 q 676 689 647 712 q 722 633 705 666 q 738 555 738 600 q 709 447 738 493 q 631 369 680 401 q 521 317 583 337 q 393 287 459 297 l 300 272 m 379 413 q 465 435 431 422 q 518 464 498 448 q 544 497 537 480 q 551 530 551 513 q 534 573 551 556 q 487 590 516 590 q 421 574 451 590 q 369 531 391 558 q 331 471 347 505 q 306 402 315 437 l 379 413 m 301 998 q 354 1004 329 1002 q 416 1007 380 1007 q 541 998 484 1007 l 665 827 q 574 819 619 819 q 522 822 547 819 q 479 827 497 825 l 301 998 "},"º":{"x_min":186.125,"x_max":740.34375,"ha":695,"o":"m 186 626 q 205 756 186 690 q 265 875 225 822 q 366 962 305 929 q 512 995 427 995 q 685 936 630 995 q 740 772 740 876 q 720 639 740 705 q 661 521 701 573 q 559 436 620 469 q 413 404 498 404 q 240 463 295 404 q 186 626 186 522 m 427 529 q 495 554 468 529 q 540 618 523 580 q 564 697 556 655 q 572 773 572 740 q 495 868 572 868 q 429 841 455 868 q 386 777 402 815 q 362 695 369 738 q 355 620 355 652 q 427 529 355 529 "},"Ø":{"x_min":98.625,"x_max":1032.03125,"ha":967,"o":"m 201 108 q 138 355 138 201 q 152 509 138 430 q 193 661 165 587 q 262 799 220 734 q 361 911 304 863 q 492 987 419 959 q 654 1015 565 1015 q 863 958 783 1015 l 908 1015 q 938 1020 919 1018 q 972 1022 958 1022 q 1032 1015 1001 1022 l 933 888 q 998 636 998 791 q 985 482 998 561 q 944 331 972 404 q 874 195 916 259 q 775 84 832 131 q 645 10 718 37 q 483 -16 572 -16 q 363 -2 416 -16 q 270 38 311 11 l 222 -23 q 169 -29 201 -29 q 132 -27 154 -29 q 98 -23 111 -26 l 201 108 m 393 194 q 501 152 430 152 q 597 177 555 152 q 671 240 640 201 q 725 332 702 280 q 760 439 747 384 q 779 548 773 494 q 786 647 786 602 q 785 672 786 661 q 783 695 784 684 l 393 194 m 741 801 q 636 841 704 841 q 539 817 581 841 q 465 753 497 793 q 411 661 433 713 q 375 554 388 609 q 356 445 362 500 q 350 345 350 391 q 350 322 350 333 q 351 301 350 312 l 741 801 "},"÷":{"x_min":209.734375,"x_max":825.0625,"ha":833,"o":"m 340 201 q 350 249 340 226 q 377 289 359 272 q 418 317 394 306 q 469 327 441 327 q 544 300 516 327 q 572 222 572 272 q 562 175 572 197 q 534 135 552 152 q 493 108 516 118 q 443 98 469 98 q 366 129 391 98 q 340 201 340 161 m 436 765 q 445 813 436 790 q 472 853 455 836 q 513 881 490 870 q 565 891 537 891 q 640 863 612 891 q 668 786 668 836 q 658 738 668 761 q 630 699 648 716 q 588 672 612 682 q 538 662 565 662 q 461 693 487 662 q 436 765 436 725 m 823 575 q 824 564 823 569 q 825 554 825 559 q 816 478 825 516 q 794 406 807 440 l 209 406 q 216 491 209 452 q 238 575 223 530 l 823 575 "},"h":{"x_min":102.78125,"x_max":805.625,"ha":811,"o":"m 234 745 q 259 966 259 891 q 259 992 259 982 q 256 1015 258 1002 q 311 1021 280 1019 q 363 1023 341 1023 q 452 1015 404 1023 q 459 962 459 994 q 443 813 459 901 l 406 619 q 502 700 443 668 q 629 733 562 733 q 759 691 712 733 q 805 550 805 648 q 802 505 805 529 q 795 455 800 481 l 715 0 q 613 -8 662 -8 q 518 0 565 -8 l 595 440 q 601 493 601 468 q 583 551 601 534 q 531 568 565 568 q 488 558 512 568 q 438 517 463 548 q 390 429 413 486 q 350 279 366 372 l 298 0 q 246 -5 272 -4 q 198 -6 220 -6 q 152 -5 175 -6 q 102 0 129 -4 l 234 745 "},".":{"x_min":98.625,"x_max":336.140625,"ha":400,"o":"m 133 202 q 186 210 161 208 q 236 212 211 212 q 285 210 259 212 q 336 202 311 208 q 327 100 336 148 q 301 0 318 51 q 248 -7 273 -5 q 198 -9 223 -9 q 149 -7 175 -9 q 98 0 123 -5 q 107 102 98 54 q 133 202 116 151 "},"₃":{"x_min":109.90625,"x_max":608.546875,"ha":625,"o":"m 247 269 l 400 435 l 211 435 q 216 497 211 466 q 232 560 221 528 l 598 560 l 608 532 l 447 339 q 535 292 505 329 q 565 201 565 255 q 543 111 565 151 q 484 43 522 71 q 398 0 447 15 q 293 -13 348 -13 q 190 -3 234 -13 q 109 21 146 5 q 130 82 115 53 q 165 134 146 112 q 229 114 201 122 q 293 107 257 107 q 334 112 314 107 q 372 127 355 116 q 398 153 389 137 q 408 189 408 168 q 385 235 408 221 q 332 248 362 248 q 309 247 323 248 q 271 239 294 246 l 247 269 "},";":{"x_min":-1,"x_max":442.140625,"ha":403,"o":"m 149 198 q 196 207 172 205 q 243 209 221 209 q 292 207 265 209 q 340 198 318 205 l 182 -155 q 133 -162 157 -161 q 87 -163 110 -163 q 44 -162 65 -163 q -1 -155 22 -161 l 149 198 m 239 716 q 292 724 267 722 q 342 726 317 726 q 391 724 365 726 q 442 716 417 722 q 433 614 442 662 q 407 514 424 565 q 354 506 379 508 q 304 504 329 504 q 255 506 281 504 q 204 514 229 508 q 213 616 204 568 q 239 716 222 665 "},"f":{"x_min":-143.0625,"x_max":701.4375,"ha":499,"o":"m 220 568 l 105 568 q 111 641 105 605 q 131 718 116 677 l 247 718 l 250 729 q 356 958 277 884 q 566 1032 436 1032 q 638 1027 607 1032 q 701 1013 669 1023 q 679 932 691 968 q 647 859 666 895 q 611 868 629 865 q 572 872 593 872 q 527 866 547 872 q 491 844 506 859 q 463 801 475 829 q 443 730 451 773 l 440 718 l 591 718 q 586 643 591 677 q 565 568 580 609 l 413 568 l 313 6 q 264 -161 295 -94 q 191 -267 233 -227 q 97 -322 150 -306 q -16 -338 44 -338 q -143 -319 -80 -338 q -97 -169 -136 -236 q -63 -178 -81 -175 q -33 -181 -44 -181 q 16 -174 -6 -181 q 60 -143 40 -166 q 96 -80 80 -120 q 123 25 112 -40 l 220 568 "},"A":{"x_min":34.71875,"x_max":855.625,"ha":879,"o":"m 501 998 q 560 1004 529 1002 q 619 1007 591 1007 q 733 998 676 1007 l 855 0 q 754 -8 802 -8 q 650 0 705 -8 l 632 201 l 327 201 l 238 0 q 134 -8 188 -8 q 34 0 81 -8 l 501 998 m 616 368 l 580 768 l 402 368 l 616 368 "},"6":{"x_min":126.40625,"x_max":832.015625,"ha":833,"o":"m 794 1007 q 802 963 800 984 q 805 922 805 943 q 802 882 805 901 q 797 843 800 862 q 663 829 726 843 q 547 787 600 816 q 454 711 494 758 q 390 595 413 663 q 463 646 415 620 q 588 672 512 672 q 684 656 640 672 q 761 608 729 640 q 813 527 794 576 q 832 413 832 479 q 802 247 832 326 q 718 110 772 169 q 587 17 663 51 q 418 -16 511 -16 q 200 63 275 -16 q 126 301 126 143 q 170 558 126 431 q 297 784 213 684 q 500 945 380 884 q 773 1007 620 1007 l 794 1007 m 443 151 q 522 172 487 151 q 580 229 556 194 q 616 306 604 263 q 629 390 629 348 q 595 481 629 454 q 505 509 562 509 q 428 490 461 509 q 374 438 395 470 q 342 365 352 405 q 331 283 331 325 q 361 184 331 216 q 443 151 390 151 "},"O":{"x_min":138.90625,"x_max":998.6875,"ha":967,"o":"m 483 -16 q 222 81 306 -16 q 138 355 138 180 q 152 509 138 430 q 193 661 165 587 q 262 799 220 734 q 361 911 304 863 q 492 987 419 959 q 654 1015 565 1015 q 807 988 741 1015 q 914 913 872 962 q 977 795 957 865 q 998 636 998 725 q 985 482 998 561 q 944 331 972 404 q 874 195 916 259 q 775 84 832 131 q 645 10 718 37 q 483 -16 572 -16 m 501 152 q 597 177 555 152 q 671 240 640 201 q 725 332 702 280 q 760 439 747 384 q 779 548 773 494 q 786 647 786 602 q 636 841 786 841 q 539 817 581 841 q 465 753 497 793 q 411 661 433 713 q 375 554 388 609 q 356 445 362 500 q 350 345 350 391 q 501 152 350 152 "},"n":{"x_min":101.390625,"x_max":805.625,"ha":813,"o":"m 176 409 q 199 564 191 497 q 206 669 206 632 q 206 695 206 684 q 205 718 206 705 q 297 726 251 726 q 338 724 318 726 q 383 718 359 722 q 388 691 386 707 q 391 645 391 676 q 391 620 391 633 q 387 590 390 608 q 429 645 404 619 q 486 691 454 672 q 554 722 518 711 q 629 733 591 733 q 759 691 712 733 q 805 550 805 648 q 802 505 805 529 q 795 455 800 481 l 715 0 q 613 -8 662 -8 q 518 0 565 -8 l 595 440 q 601 493 601 468 q 583 551 601 534 q 531 568 565 568 q 488 558 512 568 q 438 517 463 548 q 390 429 413 486 q 350 279 366 372 l 298 0 q 197 -8 244 -8 q 101 0 148 -8 l 176 409 "},"3":{"x_min":59.734375,"x_max":838.953125,"ha":833,"o":"m 279 402 l 531 736 l 229 736 q 236 819 229 777 q 258 905 243 861 l 826 905 l 838 882 l 550 512 q 707 436 657 501 q 758 269 758 370 q 721 115 758 183 q 622 2 684 48 q 479 -68 561 -44 q 309 -93 398 -93 q 245 -90 275 -93 q 186 -84 215 -88 q 125 -70 156 -79 q 59 -48 94 -61 q 78 31 66 -8 q 109 113 90 72 q 211 86 158 95 q 316 76 263 76 q 401 87 359 76 q 475 121 443 98 q 527 179 506 144 q 547 263 547 215 q 535 324 547 300 q 503 363 523 348 q 456 384 483 377 q 400 390 429 390 q 345 386 372 390 q 291 376 318 383 l 279 402 "},"9":{"x_min":141.671875,"x_max":841.734375,"ha":833,"o":"m 188 70 q 438 129 334 70 q 584 316 543 187 q 506 266 556 291 q 373 241 456 241 q 283 260 325 241 q 209 313 241 279 q 159 397 177 348 q 141 505 141 445 q 170 663 141 588 q 251 795 198 738 q 378 886 304 852 q 543 919 452 919 q 764 841 687 919 q 841 605 841 763 q 826 441 841 525 q 777 279 811 358 q 693 131 744 201 q 572 9 643 62 q 393 -71 497 -44 q 156 -98 288 -98 q 148 -9 148 -55 q 156 70 148 30 l 188 70 m 461 401 q 538 420 504 401 q 596 470 573 438 q 632 541 619 501 q 644 622 644 580 q 613 719 644 687 q 531 751 583 751 q 451 732 486 751 q 392 680 416 712 q 356 606 368 648 q 344 520 344 565 q 377 428 344 455 q 461 401 409 401 "},"l":{"x_min":127.78125,"x_max":461.140625,"ha":450,"o":"m 229 745 q 250 874 244 819 q 256 966 256 929 q 256 992 256 982 q 254 1015 255 1002 q 308 1021 277 1019 q 361 1023 338 1023 q 450 1015 401 1023 q 456 962 456 994 q 451 895 456 933 q 437 813 445 858 l 330 255 q 326 216 326 231 q 332 181 326 194 q 348 162 338 169 q 370 153 358 155 q 395 151 383 151 q 416 153 401 151 q 444 159 431 155 q 456 108 451 136 q 461 51 461 80 q 460 30 461 40 q 458 9 459 20 q 404 -3 437 1 q 330 -8 370 -8 q 181 38 236 -8 q 127 184 127 84 q 130 225 127 204 q 137 270 133 247 l 229 745 "},"¤":{"x_min":134.734375,"x_max":861.1875,"ha":833,"o":"m 231 323 q 191 475 191 391 q 234 629 191 559 l 134 730 q 180 795 152 769 q 245 841 208 820 l 348 738 q 500 777 418 777 q 650 738 580 777 l 751 841 q 812 794 783 820 q 861 732 841 768 l 762 634 q 809 475 809 561 q 797 392 809 431 q 765 319 786 352 l 861 225 q 813 163 840 193 q 751 115 786 134 l 654 213 q 500 173 584 173 q 343 213 412 173 l 245 115 q 181 161 206 133 q 134 226 155 190 l 231 323 m 500 327 q 556 339 530 327 q 600 371 581 351 q 630 418 619 391 q 641 475 641 444 q 630 533 641 505 q 600 581 619 561 q 556 613 581 601 q 500 625 530 625 q 445 613 470 625 q 400 581 419 601 q 370 533 381 561 q 359 475 359 505 q 370 418 359 444 q 400 371 381 391 q 445 339 419 351 q 500 327 470 327 "},"4":{"x_min":52.78125,"x_max":837.5625,"ha":833,"o":"m 52 131 l 538 926 q 629 905 587 920 q 704 859 672 890 l 354 280 l 548 280 l 593 530 q 640 535 616 533 q 688 537 663 537 q 740 535 716 537 q 787 530 763 533 l 743 280 l 837 280 q 830 197 837 240 q 808 112 823 155 l 713 112 l 679 -81 q 631 -86 655 -84 q 583 -88 608 -88 q 531 -86 555 -88 q 484 -81 508 -84 l 519 112 l 61 112 l 52 131 "},"p":{"x_min":44.453125,"x_max":834.78125,"ha":817,"o":"m 326 154 q 354 148 337 150 q 390 147 372 147 q 495 175 451 147 q 567 247 538 204 q 609 344 595 291 q 622 447 622 397 q 602 531 622 495 q 533 566 581 566 q 423 512 469 566 q 356 333 377 458 l 326 154 m 175 409 q 197 564 190 497 q 205 669 205 632 q 205 695 205 684 q 204 718 205 705 q 295 726 250 726 q 383 718 334 726 q 388 691 386 707 q 391 645 391 676 q 391 622 391 633 q 387 594 390 611 q 484 694 419 654 q 633 734 550 734 q 782 668 730 734 q 834 475 834 601 q 808 301 834 388 q 724 143 782 213 q 575 27 666 72 q 351 -16 483 -16 q 315 -15 327 -16 q 297 -12 304 -13 l 241 -327 q 188 -334 213 -333 q 141 -336 163 -336 q 94 -334 118 -336 q 44 -327 70 -333 l 175 409 "},"à":{"x_min":100.015625,"x_max":809.78125,"ha":790,"o":"m 598 569 q 574 572 586 572 q 551 573 562 573 q 438 540 484 573 q 361 456 391 506 q 316 349 330 406 q 302 244 302 291 q 370 141 302 141 q 494 222 437 141 q 577 451 551 304 l 598 569 m 741 311 q 719 156 726 223 q 712 51 712 88 q 712 25 712 36 q 713 2 712 15 q 623 -5 668 -5 q 537 2 584 -5 q 531 29 534 13 q 529 75 529 44 q 529 101 529 87 q 531 133 529 115 q 429 26 491 69 q 283 -16 366 -16 q 145 41 191 -16 q 100 195 100 100 q 131 397 100 300 q 224 569 162 494 q 377 689 286 644 q 591 734 469 734 q 705 726 652 734 q 809 702 758 718 l 741 311 m 355 998 q 408 1004 383 1002 q 470 1007 434 1007 q 595 998 538 1007 l 719 827 q 628 819 673 819 q 576 822 601 819 q 533 827 551 825 l 355 998 "},"Ü":{"x_min":163.90625,"x_max":1000.078125,"ha":928,"o":"m 277 998 q 331 1005 305 1004 q 381 1007 356 1007 q 429 1005 405 1007 q 480 998 454 1004 l 390 480 q 375 379 380 423 q 369 298 369 334 q 395 192 369 226 q 488 158 422 158 q 575 177 540 158 q 634 235 609 195 q 674 335 658 275 q 705 480 690 395 l 795 998 q 850 1005 826 1004 q 898 1007 875 1007 q 948 1005 923 1007 q 1000 998 973 1004 l 901 437 q 852 241 882 326 q 773 100 823 156 q 647 13 723 43 q 462 -16 572 -16 q 237 52 311 -16 q 163 279 163 122 q 179 437 163 348 l 277 998 m 426 1079 q 434 1162 427 1122 q 455 1243 440 1202 q 502 1249 477 1247 q 545 1251 526 1251 q 589 1249 565 1251 q 634 1243 614 1247 q 627 1159 633 1200 q 605 1079 620 1119 q 558 1073 582 1075 q 514 1072 534 1072 q 470 1073 495 1072 q 426 1079 445 1075 m 733 1079 q 739 1162 732 1122 q 762 1243 745 1202 q 809 1249 784 1247 q 852 1251 833 1251 q 896 1249 872 1251 q 941 1243 921 1247 q 932 1161 939 1201 q 912 1079 926 1120 q 864 1073 889 1075 q 821 1072 840 1072 q 777 1073 801 1072 q 733 1079 752 1075 "},"ó":{"x_min":108.34375,"x_max":790.34375,"ha":775,"o":"m 386 -16 q 175 58 243 -16 q 108 263 108 133 q 133 431 108 347 q 208 582 158 515 q 334 692 258 650 q 511 734 409 734 q 722 658 655 734 q 790 451 790 581 q 766 281 790 365 q 691 131 741 198 q 565 24 641 65 q 386 -16 488 -16 m 404 133 q 493 166 456 133 q 552 249 529 200 q 584 353 575 298 q 594 452 594 408 q 490 580 594 580 q 402 545 437 580 q 345 461 368 511 q 314 355 323 411 q 305 256 305 300 q 404 133 305 133 m 533 998 q 658 1007 588 1007 q 719 1004 694 1007 q 773 998 745 1002 l 577 827 q 534 822 559 825 q 481 819 509 819 q 391 827 437 819 l 533 998 "},"₀":{"x_min":95.5625,"x_max":623.390625,"ha":625,"o":"m 331 118 q 389 141 366 118 q 426 199 412 165 q 447 271 441 233 q 453 340 453 310 q 437 416 453 389 q 385 443 421 443 q 327 419 351 443 q 290 359 303 394 q 270 285 276 323 q 265 216 265 246 q 281 144 265 171 q 331 118 298 118 m 313 -13 q 213 4 255 -13 q 146 53 171 22 q 108 125 120 83 q 95 212 95 166 q 115 347 95 282 q 174 464 135 412 q 271 546 213 515 q 408 576 330 576 q 506 558 465 576 q 572 509 547 540 q 610 436 598 478 q 623 347 623 394 q 601 207 623 272 q 538 92 578 141 q 441 14 498 43 q 313 -13 384 -13 "},"⁴":{"x_min":130.5625,"x_max":636.46875,"ha":625,"o":"m 130 550 l 423 1002 q 493 984 458 998 q 551 950 527 969 l 338 636 l 444 636 l 463 744 q 492 747 479 747 q 527 748 505 748 q 597 744 568 748 l 579 636 l 636 636 q 632 580 637 608 q 618 525 627 552 l 561 525 l 544 423 q 511 419 526 420 q 476 418 497 418 q 409 423 436 418 l 426 525 l 140 525 l 130 550 "}}}
